<svg id="svg" version="1.1" xmlns="http://www.w3.org/2000/svg" xmlns:xlink="http://www.w3.org/1999/xlink" width="400" height="400" viewBox="0, 0, 400,400"><g id="svgg"><path id="path0" d="M157.200 118.228 C 135.357 122.174,122.542 143.699,128.510 166.418 C 135.184 191.829,165.282 201.925,186.595 185.902 C 190.250 183.154,190.262 183.241,185.622 178.620 L 181.625 174.640 180.112 175.938 C 163.174 190.475,137.748 176.601,139.323 153.681 C 140.788 132.375,164.351 121.735,180.112 135.262 L 181.625 136.560 185.612 132.588 C 190.405 127.814,190.363 128.234,186.349 125.210 C 177.861 118.814,167.585 116.353,157.200 118.228 M219.627 118.011 C 196.071 122.958,188.969 151.537,207.600 166.408 C 225.853 180.978,253.133 166.422,251.472 143.000 C 250.357 127.279,234.551 114.876,219.627 118.011 M229.458 130.348 C 243.594 135.515,243.023 155.624,228.621 159.811 C 218.728 162.687,208.809 155.272,208.809 145.000 C 208.809 134.400,219.599 126.744,229.458 130.348 M199.870 181.064 C 199.721 181.212,199.600 183.823,199.600 186.867 L 199.600 192.400 224.011 192.400 L 248.422 192.400 248.311 186.700 L 248.200 181.000 224.170 180.897 C 210.953 180.840,200.018 180.915,199.870 181.064 M264.937 191.427 C 263.018 193.345,264.415 196.155,267.169 195.918 C 269.117 195.750,269.146 194.958,267.215 194.649 C 265.529 194.379,265.066 193.494,266.080 192.480 C 266.970 191.590,275.086 191.839,275.585 192.772 C 276.079 193.694,275.199 194.800,273.971 194.800 C 273.547 194.800,273.200 195.070,273.200 195.400 C 273.200 196.298,275.442 196.158,276.400 195.200 C 277.481 194.119,277.407 192.571,276.218 191.382 C 274.683 189.847,266.484 189.879,264.937 191.427 M264.937 199.427 C 263.805 200.559,263.843 202.414,265.023 203.595 C 266.156 204.729,275.465 204.452,276.435 203.256 C 277.475 201.972,277.396 200.560,276.218 199.382 C 274.683 197.847,266.484 197.879,264.937 199.427 M275.585 200.772 C 276.394 202.283,275.176 202.800,270.804 202.800 C 265.717 202.800,264.405 202.155,266.080 200.480 C 266.970 199.590,275.086 199.839,275.585 200.772 M131.200 240.451 L 131.200 277.303 142.500 277.078 C 148.715 276.954,154.700 276.654,155.800 276.411 C 162.220 274.993,165.157 274.037,168.954 272.129 C 182.312 265.418,188.659 250.463,185.775 232.496 C 182.474 211.936,169.376 203.614,140.300 203.603 L 131.200 203.600 131.200 240.451 M195.291 212.100 C 198.625 216.775,204.823 225.460,209.065 231.400 L 216.777 242.200 216.788 259.700 L 216.800 277.200 222.800 277.200 L 228.800 277.200 228.803 259.700 L 228.805 242.200 242.403 223.132 C 249.881 212.644,256.000 203.959,256.000 203.832 C 256.000 203.704,252.800 203.600,248.889 203.600 L 241.779 203.600 233.389 215.460 C 224.132 228.548,223.123 229.847,222.511 229.469 C 222.280 229.326,217.976 223.450,212.946 216.411 L 203.800 203.612 196.514 203.606 L 189.229 203.600 195.291 212.100 M264.400 208.924 C 264.400 212.353,264.739 212.577,270.184 212.735 C 276.314 212.913,278.012 211.691,277.036 207.803 L 276.785 206.800 270.592 206.800 L 264.400 206.800 264.400 208.924 M275.414 208.823 C 276.538 210.641,275.334 211.230,270.732 211.113 C 266.070 210.995,265.128 210.607,265.724 209.054 C 266.024 208.273,274.943 208.060,275.414 208.823 M157.131 215.992 C 168.821 219.296,174.972 228.626,174.277 242.000 C 173.499 256.963,164.827 265.077,148.802 265.835 C 142.282 266.143,143.000 269.292,143.000 240.400 C 143.000 218.779,143.078 215.518,143.600 215.159 C 144.597 214.475,153.760 215.039,157.131 215.992 M271.600 216.430 C 269.510 217.064,267.035 217.586,266.100 217.591 C 263.397 217.605,263.868 218.639,266.700 218.906 C 267.965 219.026,270.753 219.623,272.895 220.233 C 276.663 221.306,278.167 221.296,276.678 220.208 C 276.282 219.918,275.293 219.557,274.479 219.405 C 273.009 219.130,272.000 218.564,272.000 218.015 C 272.000 217.857,272.975 217.494,274.167 217.208 C 276.758 216.586,277.395 216.238,277.028 215.645 C 276.640 215.017,275.906 215.123,271.600 216.430 M273.400 227.198 C 272.080 227.350,269.506 227.619,267.679 227.796 L 264.358 228.119 264.479 229.359 C 264.596 230.560,264.681 230.611,267.100 230.935 C 268.475 231.119,269.600 231.418,269.600 231.600 C 269.600 231.782,268.475 232.081,267.100 232.265 C 264.664 232.591,264.600 232.631,264.600 233.799 L 264.600 234.999 270.400 235.627 C 275.661 236.196,277.446 236.113,276.668 235.334 C 276.307 234.974,272.739 234.467,270.300 234.429 C 266.384 234.369,268.257 233.383,273.333 232.833 C 278.717 232.250,278.447 230.937,272.863 230.540 C 267.315 230.146,267.595 229.120,273.377 228.654 C 276.314 228.417,277.450 227.928,276.950 227.119 C 276.842 226.944,276.538 226.827,276.276 226.861 C 276.014 226.895,274.720 227.046,273.400 227.198 M264.829 239.854 C 262.440 242.892,264.364 244.400,270.629 244.400 C 276.206 244.400,277.200 243.976,277.200 241.600 C 277.200 239.224,276.206 238.800,270.629 238.800 C 265.735 238.800,265.645 238.816,264.829 239.854 M275.243 240.754 C 277.126 242.279,275.749 242.840,270.441 242.712 C 265.968 242.604,265.795 242.567,265.672 241.698 C 265.419 239.920,273.258 239.147,275.243 240.754 M264.400 247.990 C 264.400 248.720,264.656 248.800,267.000 248.800 C 269.237 248.800,269.600 248.901,269.600 249.520 C 269.600 250.729,268.737 251.200,266.520 251.200 C 264.667 251.200,264.400 251.301,264.400 252.000 C 264.400 252.945,268.199 253.182,269.576 252.322 C 270.169 251.952,270.577 251.952,271.389 252.322 C 274.444 253.714,276.927 252.396,276.971 249.359 L 277.000 247.400 270.700 247.290 C 264.604 247.183,264.400 247.206,264.400 247.990 M275.600 249.367 C 275.600 251.115,272.980 252.020,271.680 250.720 C 270.472 249.512,271.110 248.800,273.400 248.800 C 275.033 248.800,275.600 248.946,275.600 249.367 M264.400 256.000 C 264.400 256.669,264.667 256.800,266.026 256.800 C 269.678 256.800,270.063 257.978,266.800 259.168 C 264.988 259.828,264.400 260.234,264.400 260.821 C 264.400 261.790,264.151 261.822,267.600 260.400 C 271.129 258.945,271.500 258.933,274.000 260.200 C 275.085 260.750,276.249 261.200,276.587 261.200 C 277.859 261.200,277.118 260.370,274.800 259.200 C 271.698 257.634,271.620 256.800,274.576 256.800 C 276.758 256.800,277.784 256.216,276.751 255.561 C 275.456 254.741,264.400 255.133,264.400 256.000 M264.400 264.790 C 264.400 265.505,264.657 265.600,266.600 265.600 C 269.631 265.600,269.717 266.712,266.768 267.773 C 264.875 268.453,263.973 269.307,264.544 269.877 C 264.677 270.011,266.288 269.539,268.124 268.829 L 271.461 267.539 274.118 268.849 C 278.237 270.881,278.475 269.740,274.386 267.560 C 271.380 265.958,271.396 265.667,274.500 265.519 C 276.403 265.428,277.000 265.257,277.000 264.800 C 277.000 264.297,275.984 264.182,270.700 264.090 C 264.604 263.983,264.400 264.006,264.400 264.790 M264.400 275.233 C 264.400 278.406,265.301 279.077,265.523 276.069 C 265.681 273.929,265.875 273.934,271.556 276.217 C 276.880 278.357,277.307 278.266,277.119 275.036 C 276.971 272.502,275.875 272.095,275.676 274.500 C 275.520 276.380,275.474 276.377,270.396 274.208 C 264.506 271.692,264.400 271.710,264.400 275.233 " stroke="none" fill="#f9f1f2" fill-rule="evenodd"></path><path id="path1" d="M0.000 200.000 L 0.000 400.000 200.000 400.000 L 400.000 400.000 400.000 200.000 L 400.000 0.000 200.000 0.000 L 0.000 0.000 0.000 200.000 M171.975 117.855 C 179.102 119.313,190.400 125.722,190.400 128.308 C 190.400 129.056,182.487 137.200,181.759 137.200 C 181.509 137.200,180.426 136.504,179.352 135.654 C 165.010 124.296,144.218 131.525,140.601 149.126 C 135.577 173.578,160.324 190.440,179.352 175.530 C 181.925 173.514,181.607 173.384,186.300 178.375 C 191.066 183.443,190.940 183.054,188.500 185.212 C 168.730 202.690,136.174 193.699,128.435 168.623 C 119.189 138.660,142.247 111.774,171.975 117.855 M231.132 117.846 C 252.199 123.282,259.270 149.277,243.849 164.600 C 228.339 180.011,202.594 172.890,197.172 151.690 C 192.026 131.571,211.009 112.653,231.132 117.846 M221.514 130.404 C 209.355 132.503,205.282 149.117,215.091 156.607 C 224.081 163.472,236.799 158.579,238.846 147.469 C 240.689 137.467,231.725 128.641,221.514 130.404 M248.710 186.490 C 248.820 192.743,248.815 192.781,247.910 193.000 C 247.410 193.122,236.290 193.171,223.200 193.111 L 199.400 193.000 199.290 186.497 L 199.180 179.994 223.890 180.097 L 248.600 180.200 248.710 186.490 M275.595 190.123 C 279.305 191.392,278.154 196.800,274.173 196.800 C 271.988 196.800,271.876 194.266,274.045 193.924 C 274.478 193.856,274.825 193.620,274.816 193.400 C 274.791 192.779,266.708 192.876,266.500 193.500 C 266.398 193.807,266.702 194.000,267.290 194.000 C 268.725 194.000,269.631 194.837,269.347 195.900 C 268.988 197.243,265.955 197.191,264.582 195.818 C 262.684 193.920,263.614 190.512,266.200 189.886 C 267.810 189.497,274.239 189.659,275.595 190.123 M275.815 198.181 C 278.196 199.175,278.586 203.230,276.412 204.393 C 274.556 205.387,265.328 204.888,264.429 203.746 C 262.771 201.638,263.723 198.486,266.200 197.886 C 268.105 197.425,274.475 197.620,275.815 198.181 M266.680 201.054 C 265.901 201.832,266.769 202.017,270.700 201.914 C 273.224 201.847,275.000 201.635,275.000 201.400 C 275.000 200.944,267.118 200.616,266.680 201.054 M151.670 203.197 C 173.680 205.339,184.897 215.697,186.822 235.661 C 189.043 258.685,178.112 272.957,155.000 277.211 C 152.217 277.723,133.029 278.244,131.459 277.850 L 130.400 277.585 130.400 240.426 C 130.400 211.073,130.505 203.224,130.900 203.065 C 131.786 202.707,147.675 202.808,151.670 203.197 M204.090 203.300 C 204.644 203.731,209.981 211.052,219.973 225.090 C 221.418 227.119,222.705 228.784,222.833 228.790 C 222.961 228.795,225.751 225.002,229.033 220.361 C 232.315 215.719,236.445 209.914,238.211 207.461 L 241.422 203.000 248.920 202.891 C 258.296 202.755,258.064 202.289,252.512 210.081 C 250.115 213.447,243.979 222.075,238.876 229.255 L 229.600 242.310 229.600 259.675 C 229.600 272.648,229.479 277.161,229.120 277.520 C 228.614 278.026,217.864 278.230,216.633 277.757 C 216.069 277.541,216.000 275.593,216.000 259.899 L 216.000 242.283 202.152 222.895 C 191.588 208.106,188.433 203.425,188.852 203.160 C 189.754 202.588,203.336 202.713,204.090 203.300 M276.700 206.252 C 277.776 206.540,278.018 210.816,277.032 212.115 C 275.385 214.287,265.771 214.122,264.212 211.895 C 263.480 210.851,263.390 207.170,264.080 206.480 C 264.587 205.973,274.959 205.786,276.700 206.252 M266.500 209.700 C 266.619 210.057,267.849 210.200,270.800 210.200 C 273.751 210.200,274.981 210.057,275.100 209.700 C 275.227 209.320,274.196 209.200,270.800 209.200 C 267.404 209.200,266.373 209.320,266.500 209.700 M277.525 215.700 C 277.412 216.872,277.203 217.064,275.400 217.653 C 273.337 218.327,273.397 218.473,276.000 219.106 C 277.194 219.396,277.418 219.634,277.525 220.723 C 277.683 222.333,277.505 222.336,272.335 220.800 C 270.081 220.130,267.366 219.600,266.191 219.600 C 263.956 219.600,263.336 219.063,263.818 217.544 C 264.008 216.946,264.460 216.799,266.127 216.795 C 267.270 216.792,269.904 216.265,272.000 215.620 C 277.153 214.034,277.685 214.042,277.525 215.700 M143.600 240.344 L 143.600 265.200 147.300 265.186 C 164.326 265.122,173.617 256.248,173.594 240.074 C 173.572 224.774,165.142 216.392,149.100 215.719 L 143.600 215.488 143.600 240.344 M277.600 227.553 C 277.600 228.783,276.891 229.184,274.700 229.195 C 274.095 229.198,273.600 229.380,273.600 229.600 C 273.600 229.820,274.095 230.002,274.700 230.005 C 276.887 230.016,277.600 230.418,277.600 231.639 C 277.600 232.506,277.381 232.830,276.700 232.970 C 276.205 233.071,275.080 233.314,274.200 233.510 L 272.600 233.865 275.100 234.172 C 278.411 234.578,279.091 236.807,275.900 236.792 C 272.535 236.776,264.252 235.607,263.932 235.103 C 263.145 233.863,263.698 232.208,265.000 231.908 L 265.800 231.724 265.000 231.391 C 263.635 230.823,263.162 229.311,263.957 228.055 C 264.328 227.471,270.712 226.555,275.100 226.456 L 277.600 226.400 277.600 227.553 M276.669 238.958 C 278.133 240.217,278.237 242.741,276.880 244.098 C 275.462 245.516,265.520 245.482,264.365 244.056 C 262.978 242.344,263.525 239.128,265.326 238.403 C 267.460 237.543,275.480 237.935,276.669 238.958 M266.600 241.200 C 266.044 242.100,267.030 242.400,270.524 242.394 C 274.237 242.388,275.530 242.058,275.028 241.245 C 274.678 240.679,266.947 240.638,266.600 241.200 M277.600 249.191 C 277.600 252.497,276.729 253.446,273.831 253.301 C 270.571 253.138,269.351 253.159,266.719 253.423 C 264.067 253.688,264.035 253.679,263.774 252.640 C 263.391 251.113,264.162 250.457,266.501 250.320 C 269.540 250.141,269.519 249.200,266.476 249.200 C 263.941 249.200,263.318 248.718,263.818 247.144 C 264.036 246.457,264.576 246.400,270.827 246.400 L 277.600 246.400 277.600 249.191 M272.000 249.800 C 272.000 250.219,272.422 250.400,273.400 250.400 C 274.378 250.400,274.800 250.219,274.800 249.800 C 274.800 249.381,274.378 249.200,273.400 249.200 C 272.422 249.200,272.000 249.381,272.000 249.800 M277.524 256.277 C 277.646 257.539,277.624 257.556,275.724 257.677 L 273.800 257.800 275.600 258.805 C 277.097 259.641,277.422 260.034,277.528 261.141 C 277.678 262.700,277.345 262.670,273.586 260.785 L 271.371 259.675 267.816 261.049 C 265.061 262.114,264.189 262.308,263.937 261.912 C 263.049 260.512,264.075 259.180,266.500 258.584 C 268.187 258.169,267.807 257.600,265.843 257.600 C 263.967 257.600,263.362 256.981,263.821 255.534 C 264.044 254.830,264.497 254.788,270.730 254.890 L 277.400 255.000 277.524 256.277 M277.400 264.800 C 277.400 266.132,277.322 266.210,275.800 266.410 L 274.200 266.621 275.900 267.518 C 277.319 268.268,277.600 268.613,277.600 269.608 C 277.600 271.093,277.355 271.090,274.065 269.565 C 271.152 268.215,271.448 268.196,266.683 270.033 C 262.886 271.496,262.144 268.962,265.888 267.319 L 267.800 266.480 265.927 266.440 C 263.908 266.397,263.272 265.664,263.803 263.990 C 264.049 263.214,264.336 263.185,270.730 263.290 L 277.400 263.400 277.400 264.800 M270.179 273.400 C 274.906 275.381,275.200 275.380,275.200 273.376 C 275.200 272.114,275.299 272.000,276.400 272.000 L 277.600 272.000 277.600 275.200 L 277.600 278.400 276.247 278.400 C 275.502 278.400,273.163 277.680,271.049 276.800 C 266.366 274.851,266.477 274.853,266.324 276.700 C 266.211 278.072,266.098 278.200,265.000 278.200 L 263.800 278.200 263.681 275.464 C 263.485 270.957,263.975 270.801,270.179 273.400 " stroke="none" fill="#5c748c" fill-rule="evenodd"></path><path id="path2" d="M160.000 117.175 C 158.691 117.320,160.231 117.418,163.800 117.416 C 167.748 117.413,169.048 117.321,167.600 117.146 C 165.011 116.832,163.017 116.840,160.000 117.175 M221.000 117.166 C 220.095 117.310,221.572 117.421,224.400 117.423 C 227.910 117.425,228.804 117.343,227.400 117.148 C 225.021 116.817,223.174 116.823,221.000 117.166 M154.800 118.000 C 154.008 118.254,153.967 118.320,154.600 118.320 C 155.040 118.320,155.850 118.176,156.400 118.000 C 157.192 117.746,157.233 117.680,156.600 117.680 C 156.160 117.680,155.350 117.824,154.800 118.000 M171.400 118.000 C 171.840 118.189,172.560 118.338,173.000 118.332 C 173.643 118.323,173.604 118.257,172.800 118.000 C 171.432 117.562,170.381 117.562,171.400 118.000 M216.800 118.000 C 215.976 118.264,215.941 118.326,216.600 118.354 C 217.040 118.373,217.670 118.213,218.000 118.000 C 218.701 117.547,218.214 117.547,216.800 118.000 M230.600 118.000 C 231.040 118.189,231.670 118.344,232.000 118.344 C 232.378 118.344,232.304 118.217,231.800 118.000 C 231.360 117.811,230.730 117.656,230.400 117.656 C 230.022 117.656,230.096 117.783,230.600 118.000 M151.800 118.800 C 151.296 119.017,151.222 119.144,151.600 119.144 C 151.930 119.144,152.560 118.989,153.000 118.800 C 153.504 118.583,153.578 118.456,153.200 118.456 C 152.870 118.456,152.240 118.611,151.800 118.800 M210.406 120.700 C 207.553 122.362,201.800 127.877,200.683 130.022 C 199.993 131.347,199.993 131.362,200.683 130.410 C 203.965 125.882,207.407 122.738,211.639 120.406 C 212.828 119.751,213.616 119.211,213.391 119.207 C 213.166 119.203,211.823 119.875,210.406 120.700 M146.300 121.026 C 145.255 121.570,144.400 122.105,144.400 122.214 C 144.400 122.393,148.360 120.523,148.767 120.152 C 149.262 119.701,147.961 120.162,146.300 121.026 M178.833 120.165 C 179.184 120.513,184.400 123.185,184.400 123.017 C 184.400 122.781,179.416 120.000,178.995 120.000 C 178.814 120.000,178.742 120.074,178.833 120.165 M236.800 120.179 C 236.800 120.289,237.340 120.659,238.000 121.000 C 238.660 121.341,239.200 121.531,239.200 121.421 C 239.200 121.311,238.660 120.941,238.000 120.600 C 237.340 120.259,236.800 120.069,236.800 120.179 M240.600 122.596 C 243.254 124.966,245.600 127.343,245.600 127.662 C 245.600 127.848,245.788 128.000,246.017 128.000 C 246.774 128.000,244.242 125.208,241.800 123.350 C 240.480 122.346,239.940 122.007,240.600 122.596 M141.960 123.647 C 139.814 125.167,135.446 129.361,134.302 131.000 C 133.841 131.660,134.831 130.746,136.502 128.969 C 138.174 127.192,140.544 125.047,141.771 124.202 C 143.792 122.810,144.268 122.400,143.860 122.400 C 143.783 122.400,142.928 122.961,141.960 123.647 M184.800 123.325 C 184.800 123.424,185.461 124.009,186.268 124.625 C 187.076 125.241,187.611 125.541,187.456 125.291 C 187.140 124.779,184.800 123.047,184.800 123.325 M188.022 125.900 C 188.034 126.065,188.619 126.638,189.322 127.174 L 190.600 128.149 189.425 126.874 C 188.203 125.549,187.985 125.397,188.022 125.900 M186.182 132.590 C 183.972 134.839,181.902 136.782,181.582 136.908 C 181.088 137.102,181.092 137.142,181.607 137.168 C 182.220 137.200,190.714 128.966,190.380 128.664 C 190.281 128.574,188.392 130.341,186.182 132.590 M247.385 129.900 C 248.002 130.835,248.577 131.600,248.663 131.600 C 248.996 131.600,247.618 129.313,246.958 128.771 C 246.566 128.448,246.751 128.939,247.385 129.900 M222.200 129.962 C 221.459 130.128,222.300 130.234,224.400 130.241 C 226.540 130.248,227.355 130.149,226.600 129.974 C 225.092 129.623,223.736 129.620,222.200 129.962 M162.100 130.294 C 163.145 130.376,164.855 130.376,165.900 130.294 C 166.945 130.212,166.090 130.144,164.000 130.144 C 161.910 130.144,161.055 130.212,162.100 130.294 M157.000 130.800 C 155.981 131.238,157.032 131.238,158.400 130.800 C 159.204 130.543,159.243 130.477,158.600 130.468 C 158.160 130.462,157.440 130.611,157.000 130.800 M168.433 130.543 C 168.525 130.621,169.230 130.801,170.000 130.942 C 170.985 131.123,171.222 131.082,170.800 130.806 C 170.258 130.450,168.037 130.203,168.433 130.543 M216.200 132.081 C 213.430 134.056,210.368 137.708,210.416 138.978 C 210.425 139.210,210.718 138.860,211.068 138.200 C 212.217 136.029,214.420 133.622,216.225 132.564 C 217.201 131.992,218.000 131.451,218.000 131.362 C 218.000 131.005,217.339 131.269,216.200 132.081 M174.000 132.192 C 174.000 132.297,174.765 132.769,175.700 133.240 C 176.635 133.711,178.165 134.717,179.100 135.475 C 180.836 136.883,181.533 136.955,179.900 135.558 C 178.239 134.137,174.000 131.718,174.000 132.192 M232.033 132.124 C 232.125 132.192,233.274 133.227,234.586 134.424 C 236.041 135.751,236.554 136.087,235.900 135.286 C 234.695 133.809,232.645 132.000,232.176 132.000 C 232.006 132.000,231.942 132.056,232.033 132.124 M132.899 132.900 C 132.336 133.606,131.144 136.000,131.356 136.000 C 131.452 136.000,131.984 135.190,132.538 134.200 C 133.535 132.416,133.668 131.936,132.899 132.900 M150.105 133.725 C 149.393 134.206,148.808 134.744,148.805 134.920 C 148.802 135.097,149.475 134.744,150.300 134.137 C 151.125 133.529,151.875 132.980,151.967 132.916 C 152.058 132.852,151.968 132.811,151.767 132.825 C 151.565 132.839,150.817 133.244,150.105 133.725 M146.778 136.700 L 145.400 138.200 146.900 136.822 C 147.725 136.063,148.400 135.388,148.400 135.322 C 148.400 135.016,148.062 135.304,146.778 136.700 M237.478 138.195 C 237.844 138.962,238.214 139.519,238.301 139.432 C 238.484 139.249,237.270 136.800,236.996 136.800 C 236.895 136.800,237.112 137.428,237.478 138.195 M197.050 138.450 C 196.717 140.117,197.040 140.440,197.400 138.800 C 197.552 138.109,197.593 137.459,197.491 137.358 C 197.389 137.256,197.191 137.747,197.050 138.450 M251.280 138.600 C 251.280 139.040,251.424 139.850,251.600 140.400 C 251.854 141.192,251.920 141.233,251.920 140.600 C 251.920 140.160,251.776 139.350,251.600 138.800 C 251.346 138.008,251.280 137.967,251.280 138.600 M143.629 140.611 C 142.892 141.827,142.404 142.937,142.544 143.078 C 142.685 143.218,142.800 143.141,142.800 142.907 C 142.800 142.672,143.418 141.562,144.173 140.440 C 144.928 139.318,145.416 138.400,145.257 138.400 C 145.099 138.400,144.366 139.395,143.629 140.611 M238.446 140.400 C 238.465 140.730,238.624 141.450,238.800 142.000 L 239.120 143.000 239.154 142.000 C 239.173 141.450,239.013 140.730,238.800 140.400 C 238.455 139.867,238.416 139.867,238.446 140.400 M196.550 145.000 C 196.551 147.420,196.616 148.358,196.696 147.085 C 196.776 145.812,196.775 143.832,196.694 142.685 C 196.614 141.538,196.549 142.580,196.550 145.000 M209.331 145.000 C 209.333 146.540,209.405 147.121,209.492 146.291 C 209.579 145.461,209.577 144.201,209.489 143.491 C 209.400 142.781,209.329 143.460,209.331 145.000 M252.124 145.000 C 252.126 146.320,252.201 146.812,252.290 146.093 C 252.379 145.374,252.377 144.294,252.286 143.693 C 252.195 143.092,252.122 143.680,252.124 145.000 M127.450 146.050 C 127.117 147.717,127.440 148.040,127.800 146.400 C 127.952 145.709,127.993 145.059,127.891 144.958 C 127.789 144.856,127.591 145.347,127.450 146.050 M238.849 147.400 C 238.816 147.840,238.696 148.650,238.583 149.200 L 238.377 150.200 238.806 149.219 C 239.042 148.679,239.161 147.869,239.072 147.419 C 238.913 146.621,238.907 146.621,238.849 147.400 M140.200 149.200 C 140.046 150.110,140.004 150.938,140.107 151.040 C 140.210 151.143,140.413 150.477,140.560 149.560 C 140.707 148.643,140.748 147.815,140.653 147.720 C 140.558 147.624,140.354 148.290,140.200 149.200 M126.659 150.900 C 126.341 153.546,126.376 158.447,126.730 160.800 C 126.883 161.818,127.000 159.603,127.000 155.700 C 127.000 147.948,127.005 148.020,126.659 150.900 M251.422 150.222 C 251.272 151.025,251.228 151.762,251.326 151.860 C 251.424 151.957,251.627 151.381,251.778 150.578 C 251.928 149.775,251.972 149.038,251.874 148.940 C 251.776 148.843,251.573 149.419,251.422 150.222 M196.868 150.400 C 196.888 151.439,197.518 153.146,197.532 152.200 C 197.538 151.760,197.389 151.040,197.200 150.600 C 196.989 150.110,196.861 150.032,196.868 150.400 M237.200 152.261 C 237.200 152.904,234.373 156.015,232.664 157.253 C 231.793 157.884,231.224 158.400,231.401 158.400 C 232.597 158.400,238.065 152.731,237.455 152.122 C 237.315 151.982,237.200 152.044,237.200 152.261 M139.737 155.400 C 139.739 157.160,139.809 157.830,139.893 156.889 C 139.978 155.949,139.977 154.509,139.891 153.689 C 139.805 152.870,139.736 153.640,139.737 155.400 M211.213 152.656 C 211.231 153.144,212.357 154.576,212.561 154.371 C 212.655 154.277,212.387 153.775,211.966 153.256 C 211.545 152.736,211.206 152.466,211.213 152.656 M213.164 155.335 C 213.749 156.063,216.000 157.777,216.000 157.494 C 216.000 157.406,215.235 156.726,214.300 155.983 C 213.365 155.240,212.854 154.948,213.164 155.335 M216.400 157.819 C 216.400 158.113,218.849 159.250,219.209 159.124 C 219.404 159.056,218.851 158.698,217.982 158.330 C 217.112 157.961,216.400 157.731,216.400 157.819 M247.784 159.500 C 247.395 160.105,246.367 161.500,245.501 162.600 L 243.925 164.600 245.663 162.724 C 247.279 160.979,249.072 158.400,248.669 158.400 C 248.571 158.400,248.173 158.895,247.784 159.500 M200.638 159.924 C 201.057 160.652,201.830 161.642,202.356 162.124 C 202.919 162.640,202.695 162.178,201.812 161.000 C 199.923 158.483,199.679 158.259,200.638 159.924 M220.421 159.621 C 220.955 159.960,223.942 160.181,223.567 159.855 C 223.475 159.775,222.599 159.608,221.621 159.482 C 220.470 159.335,220.046 159.384,220.421 159.621 M226.600 159.600 L 225.000 159.886 226.400 159.937 C 227.170 159.965,228.070 159.813,228.400 159.600 C 229.055 159.177,228.962 159.177,226.600 159.600 M140.028 160.833 C 140.044 161.365,140.219 162.160,140.419 162.600 C 140.671 163.158,140.707 162.915,140.538 161.800 C 140.255 159.943,139.987 159.436,140.028 160.833 M205.200 165.255 C 207.639 167.493,210.762 169.771,211.028 169.506 C 211.122 169.411,210.336 168.775,209.281 168.091 C 208.226 167.408,206.482 166.028,205.404 165.024 C 204.327 164.021,203.345 163.208,203.223 163.218 C 203.100 163.228,203.990 164.145,205.200 165.255 M127.268 164.000 C 127.288 165.039,127.918 166.746,127.932 165.800 C 127.938 165.360,127.789 164.640,127.600 164.200 C 127.389 163.710,127.261 163.632,127.268 164.000 M140.800 164.084 C 140.800 164.769,141.912 167.600,142.181 167.600 C 142.351 167.600,141.211 163.949,140.942 163.633 C 140.864 163.542,140.800 163.745,140.800 164.084 M241.200 166.683 C 239.990 167.695,237.866 169.057,236.480 169.709 C 235.094 170.361,234.046 170.980,234.151 171.084 C 234.532 171.465,239.889 168.340,241.819 166.611 C 244.414 164.286,244.007 164.333,241.200 166.683 M128.828 169.692 C 128.782 170.165,130.086 173.248,130.258 173.075 C 130.345 172.988,130.066 172.125,129.637 171.158 C 129.208 170.191,128.844 169.531,128.828 169.692 M143.200 169.747 C 143.200 169.916,144.010 171.048,145.000 172.264 C 145.990 173.479,146.800 174.352,146.800 174.204 C 146.800 174.056,146.134 173.094,145.320 172.067 C 143.259 169.467,143.200 169.402,143.200 169.747 M215.600 171.600 C 215.930 171.813,216.470 171.988,216.800 171.988 C 217.333 171.988,217.333 171.945,216.800 171.600 C 216.470 171.387,215.930 171.212,215.600 171.212 C 215.067 171.212,215.067 171.255,215.600 171.600 M231.800 171.600 C 231.296 171.817,231.222 171.944,231.600 171.944 C 231.930 171.944,232.560 171.789,233.000 171.600 C 233.504 171.383,233.578 171.256,233.200 171.256 C 232.870 171.256,232.240 171.411,231.800 171.600 M218.800 172.400 C 219.350 172.576,220.250 172.717,220.800 172.713 C 221.698 172.706,221.678 172.674,220.600 172.400 C 218.908 171.969,217.456 171.969,218.800 172.400 M228.000 172.400 L 227.000 172.720 228.000 172.720 C 228.550 172.720,229.450 172.576,230.000 172.400 L 231.000 172.080 230.000 172.080 C 229.450 172.080,228.550 172.224,228.000 172.400 M181.600 174.298 C 181.930 174.427,182.695 175.061,183.300 175.708 C 183.905 176.355,184.400 176.719,184.400 176.517 C 184.400 175.926,182.210 173.997,181.578 174.032 C 181.095 174.058,181.098 174.102,181.600 174.298 M147.200 174.629 C 147.200 174.911,147.617 175.279,149.700 176.833 C 151.463 178.149,150.968 177.434,149.000 175.821 C 148.010 175.010,147.200 174.474,147.200 174.629 M179.200 175.670 C 178.430 176.325,176.927 177.310,175.860 177.858 C 174.793 178.405,174.006 178.939,174.110 179.044 C 174.336 179.269,178.592 176.759,179.957 175.596 C 180.483 175.147,180.843 174.712,180.757 174.629 C 180.670 174.546,179.970 175.014,179.200 175.670 M131.786 176.300 C 132.135 177.015,132.506 177.600,132.610 177.600 C 133.008 177.600,132.752 176.963,131.967 176.000 L 131.152 175.000 131.786 176.300 M151.200 177.796 C 151.200 178.070,153.649 179.284,153.832 179.101 C 153.919 179.014,153.362 178.644,152.595 178.278 C 151.828 177.912,151.200 177.695,151.200 177.796 M134.170 179.820 C 135.714 182.064,139.447 185.741,141.600 187.140 C 142.889 187.978,142.873 187.945,141.400 186.727 C 139.362 185.043,135.331 180.997,133.890 179.191 C 133.280 178.426,133.406 178.709,134.170 179.820 M188.200 180.800 C 189.283 181.900,190.260 182.800,190.370 182.800 C 190.480 182.800,189.683 181.900,188.600 180.800 C 187.517 179.700,186.540 178.800,186.430 178.800 C 186.320 178.800,187.117 179.700,188.200 180.800 M157.200 180.394 C 157.530 180.611,158.235 180.791,158.767 180.794 C 160.051 180.802,159.725 180.575,158.000 180.258 C 157.015 180.077,156.778 180.118,157.200 180.394 M169.600 180.400 C 168.776 180.664,168.741 180.726,169.400 180.754 C 169.840 180.773,170.470 180.613,170.800 180.400 C 171.501 179.947,171.014 179.947,169.600 180.400 M199.200 180.297 C 199.200 180.464,210.213 180.552,223.673 180.494 C 243.050 180.410,248.220 180.493,248.503 180.894 C 248.772 181.274,248.820 181.251,248.697 180.800 C 248.519 180.147,199.200 179.645,199.200 180.297 M162.100 181.094 C 163.145 181.176,164.855 181.176,165.900 181.094 C 166.945 181.012,166.090 180.944,164.000 180.944 C 161.910 180.944,161.055 181.012,162.100 181.094 M188.800 184.513 C 188.030 185.224,186.770 186.314,186.000 186.935 C 185.230 187.556,184.960 187.885,185.400 187.664 C 186.235 187.246,190.749 183.242,190.400 183.229 C 190.290 183.225,189.570 183.803,188.800 184.513 M143.200 188.179 C 143.200 188.289,143.740 188.659,144.400 189.000 C 145.060 189.341,145.600 189.531,145.600 189.421 C 145.600 189.311,145.060 188.941,144.400 188.600 C 143.740 188.259,143.200 188.069,143.200 188.179 M180.600 190.034 C 179.500 190.665,178.741 191.186,178.913 191.191 C 179.350 191.204,183.200 189.230,183.200 188.993 C 183.200 188.642,182.622 188.873,180.600 190.034 M266.150 189.855 C 264.576 190.202,263.529 191.744,263.706 193.454 L 263.866 195.000 263.933 193.362 C 264.033 190.917,264.894 190.356,268.927 190.104 C 273.265 189.833,275.800 190.218,276.808 191.301 C 277.244 191.769,277.600 191.941,277.600 191.685 C 277.600 190.174,270.123 188.980,266.150 189.855 M152.000 192.400 C 152.330 192.613,152.870 192.788,153.200 192.788 C 153.733 192.788,153.733 192.745,153.200 192.400 C 152.870 192.187,152.330 192.012,152.000 192.012 C 151.467 192.012,151.467 192.055,152.000 192.400 M199.543 192.903 C 199.710 193.070,210.726 193.160,224.023 193.103 L 248.200 193.000 223.720 192.800 C 210.256 192.690,199.376 192.736,199.543 192.903 M266.134 193.027 C 265.800 193.899,266.527 194.502,267.654 194.288 C 268.499 194.128,268.478 194.103,267.467 194.054 C 266.753 194.020,266.395 193.815,266.501 193.500 C 266.621 193.142,267.870 193.000,270.897 193.000 C 273.222 193.000,275.041 192.865,274.939 192.700 C 274.539 192.055,266.391 192.358,266.134 193.027 M154.800 193.200 C 155.350 193.376,156.160 193.520,156.600 193.520 C 157.233 193.520,157.192 193.454,156.400 193.200 C 155.850 193.024,155.040 192.880,154.600 192.880 C 153.967 192.880,154.008 192.946,154.800 193.200 M171.400 193.200 L 170.600 193.544 171.400 193.544 C 171.840 193.544,172.560 193.389,173.000 193.200 L 173.800 192.856 173.000 192.856 C 172.560 192.856,171.840 193.011,171.400 193.200 M161.100 194.103 C 162.695 194.284,165.305 194.284,166.900 194.103 C 169.456 193.814,169.112 193.775,164.000 193.775 C 158.888 193.775,158.544 193.814,161.100 194.103 M274.000 194.000 L 273.000 194.320 274.100 194.360 C 274.705 194.382,275.200 194.220,275.200 194.000 C 275.200 193.780,275.155 193.618,275.100 193.640 C 275.045 193.662,274.550 193.824,274.000 194.000 M268.719 195.570 C 268.620 196.246,268.666 196.800,268.823 196.800 C 269.270 196.800,269.611 195.051,269.237 194.677 C 269.051 194.491,268.818 194.893,268.719 195.570 M276.700 195.471 C 276.331 195.840,275.258 196.268,274.315 196.421 L 272.600 196.700 274.078 196.750 C 275.273 196.790,278.732 194.880,277.586 194.813 C 277.468 194.806,277.069 195.102,276.700 195.471 M264.925 196.100 C 265.345 196.485,266.164 196.782,266.744 196.759 C 267.712 196.722,267.692 196.693,266.502 196.410 C 265.789 196.241,264.970 195.944,264.684 195.751 C 264.397 195.558,264.506 195.715,264.925 196.100 M266.150 197.876 C 264.591 198.182,263.529 199.737,263.706 201.454 L 263.866 203.000 263.933 201.362 C 264.048 198.546,264.802 198.200,270.829 198.200 C 273.658 198.200,275.664 198.078,275.286 197.928 C 274.553 197.638,267.568 197.598,266.150 197.876 M266.152 200.981 C 266.029 201.300,266.046 201.750,266.188 201.981 C 266.484 202.460,275.200 202.575,275.201 202.100 C 275.201 201.935,273.202 201.857,270.759 201.926 C 267.225 202.026,266.352 201.944,266.492 201.526 C 266.623 201.136,267.760 201.000,270.897 201.000 C 273.222 201.000,275.041 200.865,274.939 200.700 C 274.562 200.092,266.393 200.353,266.152 200.981 M135.723 203.099 C 138.320 203.169,142.460 203.168,144.923 203.098 C 147.385 203.028,145.260 202.971,140.200 202.972 C 135.140 202.972,133.125 203.029,135.723 203.099 M192.700 203.098 C 194.735 203.171,198.065 203.171,200.100 203.098 C 202.135 203.025,200.470 202.966,196.400 202.966 C 192.330 202.966,190.665 203.025,192.700 203.098 M240.359 204.500 C 238.181 207.332,238.146 207.386,238.695 207.056 C 238.967 206.893,239.738 205.962,240.408 204.988 L 241.626 203.218 249.113 203.099 L 256.600 202.981 249.134 202.891 L 241.667 202.800 240.359 204.500 M276.950 203.385 C 276.827 203.706,276.369 204.083,275.933 204.221 C 275.497 204.360,275.228 204.561,275.336 204.669 C 275.648 204.982,277.083 204.081,277.340 203.411 C 277.469 203.075,277.485 202.800,277.375 202.800 C 277.265 202.800,277.074 203.063,276.950 203.385 M130.592 240.400 C 130.592 260.970,130.640 269.385,130.700 259.100 C 130.759 248.815,130.759 231.985,130.700 221.700 C 130.640 211.415,130.592 219.830,130.592 240.400 M153.000 203.623 C 153.880 203.805,155.050 203.944,155.600 203.931 C 156.241 203.916,156.026 203.789,155.000 203.577 C 154.120 203.395,152.950 203.256,152.400 203.269 C 151.759 203.284,151.974 203.411,153.000 203.623 M188.402 203.433 C 188.403 203.635,188.868 204.340,189.435 205.000 L 190.466 206.200 189.563 204.800 C 188.404 203.004,188.400 202.999,188.402 203.433 M264.658 204.019 C 265.130 204.501,265.711 204.828,265.949 204.747 C 266.187 204.666,265.801 204.273,265.091 203.872 L 263.800 203.145 264.658 204.019 M158.200 204.400 C 158.640 204.589,159.360 204.738,159.800 204.732 C 160.443 204.723,160.404 204.657,159.600 204.400 C 158.232 203.962,157.181 203.962,158.200 204.400 M255.525 205.300 C 253.904 207.474,252.640 209.436,253.271 208.800 C 254.086 207.979,256.913 204.000,256.682 204.000 C 256.579 204.000,256.059 204.585,255.525 205.300 M206.399 206.752 C 207.360 208.122,208.327 209.355,208.547 209.491 C 208.768 209.627,208.162 208.618,207.201 207.248 C 206.240 205.878,205.273 204.645,205.053 204.509 C 204.832 204.373,205.438 205.382,206.399 206.752 M161.600 205.200 C 161.930 205.413,162.560 205.578,163.000 205.566 L 163.800 205.544 163.000 205.200 C 161.804 204.686,160.805 204.686,161.600 205.200 M165.558 206.437 C 166.525 206.866,167.388 207.145,167.475 207.058 C 167.648 206.886,164.565 205.582,164.092 205.628 C 163.931 205.644,164.591 206.008,165.558 206.437 M267.300 206.297 C 269.005 206.372,271.795 206.372,273.500 206.297 C 275.205 206.222,273.810 206.161,270.400 206.161 C 266.990 206.161,265.595 206.222,267.300 206.297 M191.773 208.418 C 194.047 211.596,194.783 212.213,192.856 209.325 C 191.947 207.963,190.981 206.712,190.708 206.543 C 190.435 206.374,190.914 207.218,191.773 208.418 M263.724 209.000 C 263.726 210.320,263.801 210.812,263.890 210.093 C 263.979 209.374,263.977 208.294,263.886 207.693 C 263.795 207.092,263.722 207.680,263.724 209.000 M169.800 208.318 C 175.061 211.222,178.202 214.068,181.278 218.716 C 182.400 220.412,183.219 221.516,183.098 221.168 C 181.691 217.135,175.313 210.692,170.116 208.055 C 167.681 206.819,167.443 207.017,169.800 208.318 M237.713 208.100 C 236.029 210.290,233.511 214.102,233.913 213.853 C 234.427 213.536,238.554 207.600,238.261 207.600 C 238.171 207.600,237.925 207.825,237.713 208.100 M266.189 209.218 C 266.047 209.447,266.149 209.897,266.415 210.218 C 266.934 210.844,274.569 211.097,274.939 210.500 C 275.041 210.335,273.222 210.200,270.897 210.200 C 264.707 210.200,264.685 209.274,270.871 209.099 L 275.400 208.971 270.924 208.886 C 268.153 208.833,266.349 208.959,266.189 209.218 M251.525 210.900 C 249.618 213.457,248.649 214.940,249.048 214.694 C 249.521 214.402,252.938 209.600,252.673 209.600 C 252.575 209.600,252.059 210.185,251.525 210.900 M209.943 211.718 C 210.640 212.731,211.422 213.690,211.680 213.850 C 211.939 214.009,211.535 213.284,210.784 212.237 C 209.005 209.760,208.294 209.321,209.943 211.718 M276.539 211.957 C 275.693 212.981,275.584 213.000,270.613 213.000 C 267.827 213.000,265.965 213.117,266.474 213.260 C 269.766 214.185,276.236 213.401,277.128 211.969 C 277.890 210.746,277.544 210.739,276.539 211.957 M195.773 214.018 C 198.031 217.174,198.835 217.856,196.788 214.878 C 195.834 213.492,194.864 212.240,194.633 212.097 C 194.401 211.954,194.914 212.818,195.773 214.018 M213.544 216.675 C 214.453 218.037,215.419 219.288,215.692 219.457 C 215.965 219.626,215.486 218.782,214.627 217.582 C 212.353 214.404,211.617 213.787,213.544 216.675 M232.350 215.700 C 231.852 216.415,230.985 217.621,230.422 218.380 C 229.860 219.139,229.626 219.623,229.902 219.455 C 230.443 219.127,233.753 214.400,233.442 214.400 C 233.339 214.400,232.847 214.985,232.350 215.700 M274.800 214.800 C 273.456 215.231,274.908 215.231,276.600 214.800 C 277.678 214.526,277.698 214.494,276.800 214.487 C 276.250 214.483,275.350 214.624,274.800 214.800 M143.384 215.700 C 143.279 215.975,143.239 227.270,143.296 240.800 L 143.400 265.400 147.289 265.514 C 149.428 265.577,151.768 265.472,152.489 265.280 C 153.335 265.055,151.992 264.998,148.700 265.120 L 143.600 265.308 143.600 240.402 L 143.600 215.496 149.100 215.674 C 152.125 215.772,154.150 215.724,153.600 215.566 C 151.767 215.041,143.595 215.148,143.384 215.700 M155.233 216.144 C 155.325 216.223,155.940 216.408,156.600 216.556 C 157.476 216.752,157.638 216.715,157.200 216.418 C 156.660 216.053,154.832 215.798,155.233 216.144 M269.400 216.400 C 268.896 216.617,268.822 216.744,269.200 216.744 C 269.530 216.744,270.160 216.589,270.600 216.400 C 271.104 216.183,271.178 216.056,270.800 216.056 C 270.470 216.056,269.840 216.211,269.400 216.400 M247.123 217.100 C 246.198 218.179,243.809 221.879,244.476 221.200 C 245.267 220.396,248.114 216.400,247.896 216.400 C 247.801 216.400,247.454 216.715,247.123 217.100 M276.200 217.014 C 275.540 217.317,275.281 217.572,275.624 217.582 C 275.966 217.592,276.596 217.336,277.024 217.013 C 277.972 216.296,277.769 216.296,276.200 217.014 M162.200 218.665 C 163.300 219.230,164.557 219.987,164.993 220.346 C 165.744 220.965,165.756 220.961,165.218 220.269 C 164.669 219.562,161.151 217.581,160.513 217.619 C 160.341 217.629,161.100 218.100,162.200 218.665 M199.773 219.618 C 202.031 222.774,202.835 223.456,200.788 220.478 C 199.834 219.092,198.864 217.840,198.633 217.697 C 198.401 217.554,198.914 218.418,199.773 219.618 M273.012 217.980 C 272.728 218.440,274.067 219.212,275.074 219.168 C 275.620 219.145,275.651 219.087,275.200 218.937 C 273.380 218.330,273.374 218.325,274.200 217.985 C 274.969 217.669,274.966 217.655,274.124 217.628 C 273.642 217.613,273.142 217.771,273.012 217.980 M264.200 219.399 C 265.109 219.707,270.148 219.882,269.400 219.580 C 268.960 219.402,267.520 219.258,266.200 219.260 C 264.880 219.262,263.980 219.324,264.200 219.399 M276.623 219.767 C 277.461 220.380,277.840 220.313,277.416 219.627 C 277.271 219.392,276.859 219.200,276.500 219.200 C 275.954 219.200,275.974 219.293,276.623 219.767 M217.584 222.300 C 223.220 230.336,222.696 229.879,224.006 227.900 L 224.866 226.600 223.851 227.784 C 223.292 228.436,222.762 228.886,222.672 228.784 C 222.583 228.683,221.123 226.665,219.428 224.300 C 217.733 221.935,216.262 220.000,216.159 220.000 C 216.055 220.000,216.696 221.035,217.584 222.300 M167.662 222.673 C 168.658 223.813,169.993 225.737,170.627 226.949 C 171.262 228.161,171.847 229.086,171.929 229.004 C 172.324 228.610,169.336 223.914,167.701 222.360 L 165.849 220.600 167.662 222.673 M227.525 222.500 C 225.618 225.057,224.649 226.540,225.048 226.294 C 225.521 226.002,228.938 221.200,228.673 221.200 C 228.575 221.200,228.059 221.785,227.525 222.500 M276.400 221.600 L 275.400 221.920 276.500 221.960 C 277.105 221.982,277.600 221.820,277.600 221.600 C 277.600 221.380,277.555 221.218,277.500 221.240 C 277.445 221.262,276.950 221.424,276.400 221.600 M242.292 223.868 C 241.581 224.896,240.451 226.471,239.781 227.368 C 237.905 229.879,235.149 234.000,235.346 234.000 C 235.443 234.000,237.278 231.525,239.424 228.500 C 241.570 225.475,243.499 222.775,243.712 222.500 C 243.924 222.225,243.982 222.000,243.841 222.000 C 243.699 222.000,243.002 222.841,242.292 223.868 M203.773 225.218 C 206.031 228.374,206.835 229.056,204.788 226.078 C 203.834 224.692,202.864 223.440,202.633 223.297 C 202.401 223.154,202.914 224.018,203.773 225.218 M184.012 224.000 C 184.012 224.330,184.187 224.870,184.400 225.200 C 184.745 225.733,184.788 225.733,184.788 225.200 C 184.788 224.870,184.613 224.330,184.400 224.000 C 184.055 223.467,184.012 223.467,184.012 224.000 M184.856 226.400 C 184.856 226.730,185.011 227.360,185.200 227.800 C 185.417 228.304,185.544 228.378,185.544 228.000 C 185.544 227.670,185.389 227.040,185.200 226.600 C 184.983 226.096,184.856 226.022,184.856 226.400 M270.800 226.800 C 269.151 227.056,269.117 227.083,270.400 227.117 C 271.170 227.137,272.520 227.005,273.400 226.823 C 275.466 226.396,273.512 226.378,270.800 226.800 M264.600 227.610 C 264.066 227.847,264.398 227.886,265.600 227.727 C 266.590 227.596,267.475 227.424,267.567 227.344 C 267.914 227.043,265.364 227.272,264.600 227.610 M185.680 229.600 C 185.680 230.150,185.824 231.050,186.000 231.600 L 186.320 232.600 186.320 231.600 C 186.320 231.050,186.176 230.150,186.000 229.600 L 185.680 228.600 185.680 229.600 M207.773 230.818 C 210.031 233.974,210.835 234.656,208.788 231.678 C 207.834 230.292,206.864 229.040,206.633 228.897 C 206.401 228.754,206.914 229.618,207.773 230.818 M272.500 229.082 C 270.215 229.522,272.973 230.659,275.437 230.293 C 276.451 230.142,276.407 230.112,275.100 230.060 C 274.275 230.027,273.600 229.831,273.600 229.624 C 273.600 229.417,274.275 229.178,275.100 229.091 L 276.600 228.934 275.000 228.922 C 274.120 228.915,272.995 228.987,272.500 229.082 M265.400 231.600 C 265.536 231.820,266.277 232.000,267.047 232.000 C 267.879 232.000,268.347 231.838,268.200 231.600 C 268.064 231.380,267.323 231.200,266.553 231.200 C 265.721 231.200,265.253 231.362,265.400 231.600 M172.868 232.800 C 172.888 233.839,173.518 235.546,173.532 234.600 C 173.538 234.160,173.389 233.440,173.200 233.000 C 172.989 232.510,172.861 232.432,172.868 232.800 M272.600 233.349 C 270.297 233.892,270.914 234.436,273.733 234.347 L 275.400 234.295 274.000 234.024 C 272.601 233.753,272.602 233.752,274.800 233.324 C 276.156 233.060,276.540 232.892,275.800 232.886 C 275.140 232.881,273.700 233.089,272.600 233.349 M186.579 240.200 C 186.584 246.590,186.623 247.011,186.921 243.941 C 187.106 242.038,187.104 238.798,186.916 236.741 C 186.601 233.304,186.574 233.585,186.579 240.200 M211.773 236.418 C 214.031 239.574,214.835 240.256,212.788 237.278 C 211.834 235.892,210.864 234.640,210.633 234.497 C 210.401 234.354,210.914 235.218,211.773 236.418 M234.323 235.100 C 233.398 236.179,231.009 239.879,231.676 239.200 C 232.467 238.396,235.314 234.400,235.096 234.400 C 235.001 234.400,234.654 234.715,234.323 235.100 M264.800 235.600 C 265.350 235.776,266.430 235.917,267.200 235.914 L 268.600 235.908 267.000 235.577 C 264.863 235.135,263.396 235.150,264.800 235.600 M271.400 236.418 C 274.244 236.861,276.388 236.830,274.200 236.377 C 273.320 236.195,271.880 236.060,271.000 236.076 C 269.433 236.106,269.441 236.113,271.400 236.418 M173.740 240.400 C 173.740 242.270,173.809 243.035,173.893 242.100 C 173.977 241.165,173.977 239.635,173.893 238.700 C 173.809 237.765,173.740 238.530,173.740 240.400 M268.300 238.296 C 269.675 238.374,271.925 238.374,273.300 238.296 C 274.675 238.218,273.550 238.154,270.800 238.154 C 268.050 238.154,266.925 238.218,268.300 238.296 M230.162 240.842 C 229.443 241.635,229.389 242.698,229.200 259.542 L 229.000 277.400 222.800 277.400 L 216.600 277.400 216.394 259.800 L 216.187 242.200 216.094 259.857 C 216.010 275.645,216.067 277.540,216.633 277.757 C 217.864 278.230,228.614 278.026,229.120 277.520 C 229.479 277.161,229.600 272.649,229.600 259.682 C 229.600 242.774,229.621 242.293,230.427 241.162 C 231.394 239.804,231.254 239.635,230.162 240.842 M263.709 241.600 C 263.709 242.590,263.787 242.995,263.882 242.500 C 263.978 242.005,263.978 241.195,263.882 240.700 C 263.787 240.205,263.709 240.610,263.709 241.600 M266.000 241.600 C 266.000 242.040,266.141 242.400,266.314 242.400 C 266.487 242.400,266.629 242.040,266.629 241.600 C 266.629 241.160,266.487 240.800,266.314 240.800 C 266.141 240.800,266.000 241.160,266.000 241.600 M276.514 243.880 C 276.027 244.386,275.774 244.800,275.952 244.800 C 276.342 244.800,277.798 243.245,277.564 243.077 C 277.474 243.013,277.001 243.374,276.514 243.880 M268.316 245.097 C 269.699 245.175,271.859 245.174,273.116 245.095 C 274.372 245.016,273.240 244.952,270.600 244.953 C 267.960 244.953,266.932 245.018,268.316 245.097 M173.249 245.800 C 173.216 246.240,173.096 247.050,172.983 247.600 L 172.777 248.600 173.206 247.619 C 173.442 247.079,173.561 246.269,173.472 245.819 C 173.313 245.021,173.307 245.021,173.249 245.800 M266.000 246.671 C 271.295 246.960,277.602 246.975,277.601 246.700 C 277.600 246.535,274.495 246.434,270.700 246.476 C 266.905 246.517,264.790 246.605,266.000 246.671 M185.822 249.822 C 185.672 250.625,185.628 251.362,185.726 251.460 C 185.824 251.557,186.027 250.981,186.178 250.178 C 186.328 249.375,186.372 248.638,186.274 248.540 C 186.176 248.443,185.973 249.019,185.822 249.822 M266.327 249.097 C 269.381 249.269,269.559 250.135,266.579 250.326 C 264.333 250.470,263.577 250.941,263.654 252.149 C 263.707 252.965,263.716 252.963,263.882 252.101 C 264.065 251.151,264.738 250.884,267.400 250.707 C 270.677 250.488,269.864 248.783,266.528 248.877 L 263.800 248.954 266.327 249.097 M271.672 249.700 C 271.780 250.462,272.045 250.600,273.400 250.600 C 274.755 250.600,275.020 250.462,275.128 249.700 C 275.245 248.878,275.096 248.800,273.400 248.800 C 271.704 248.800,271.555 248.878,271.672 249.700 M274.800 249.800 C 274.800 250.219,274.378 250.400,273.400 250.400 C 272.422 250.400,272.000 250.219,272.000 249.800 C 272.000 249.381,272.422 249.200,273.400 249.200 C 274.378 249.200,274.800 249.381,274.800 249.800 M276.856 251.855 C 276.376 252.927,276.386 252.958,277.018 252.339 C 277.389 251.976,277.620 251.460,277.531 251.194 C 277.442 250.927,277.139 251.225,276.856 251.855 M171.078 253.005 C 170.712 253.772,170.495 254.400,170.596 254.400 C 170.870 254.400,172.084 251.951,171.901 251.768 C 171.814 251.681,171.444 252.238,171.078 253.005 M266.200 253.200 L 263.800 253.466 266.000 253.505 C 267.210 253.526,268.560 253.389,269.000 253.200 C 269.892 252.817,269.664 252.817,266.200 253.200 M272.115 253.280 C 272.708 253.656,274.343 253.645,275.326 253.258 C 275.752 253.090,275.138 252.971,273.841 252.971 C 272.625 252.971,271.848 253.110,272.115 253.280 M266.000 255.071 C 271.292 255.360,277.511 255.375,277.339 255.100 C 277.237 254.935,274.148 254.834,270.476 254.876 C 266.804 254.917,264.790 255.005,266.000 255.071 M168.200 257.200 C 167.568 257.860,167.187 258.400,167.354 258.400 C 167.671 258.400,168.223 257.877,169.149 256.698 C 170.021 255.590,169.458 255.887,168.200 257.200 M183.035 258.579 C 182.058 260.916,179.157 264.885,176.620 267.356 C 174.758 269.169,174.596 269.403,175.920 268.373 C 178.979 265.992,185.188 257.200,183.811 257.200 C 183.701 257.200,183.351 257.821,183.035 258.579 M265.200 259.101 C 264.338 259.531,263.785 260.107,263.761 260.600 C 263.728 261.268,263.749 261.280,263.892 260.670 C 263.986 260.269,264.814 259.606,265.732 259.198 C 266.649 258.790,267.220 258.444,267.000 258.429 C 266.780 258.414,265.970 258.716,265.200 259.101 M164.744 260.327 C 163.944 260.917,162.954 261.632,162.544 261.915 C 162.135 262.198,162.569 262.027,163.509 261.536 C 164.450 261.044,165.513 260.318,165.871 259.921 C 166.748 258.952,166.479 259.049,164.744 260.327 M270.763 259.668 C 270.291 259.997,270.297 260.033,270.800 259.887 C 271.130 259.791,272.390 260.204,273.600 260.804 C 276.446 262.216,277.600 262.569,277.600 262.027 C 277.600 261.792,277.245 261.600,276.812 261.600 C 276.379 261.600,275.434 261.279,274.712 260.887 C 272.187 259.516,271.351 259.258,270.763 259.668 M265.400 261.629 C 264.520 262.052,264.238 262.286,264.774 262.149 C 266.239 261.773,268.286 260.829,267.600 260.845 C 267.270 260.853,266.280 261.206,265.400 261.629 M263.800 264.000 C 263.271 265.666,263.911 266.398,265.927 266.432 L 267.800 266.465 266.200 267.222 C 264.267 268.137,264.894 268.254,267.004 267.373 C 268.816 266.616,268.455 266.096,266.000 265.925 C 264.380 265.813,264.200 265.700,264.200 264.800 L 264.200 263.800 270.862 263.800 C 274.527 263.800,277.441 263.665,277.339 263.500 C 276.844 262.701,264.062 263.173,263.800 264.000 M155.400 264.400 C 154.293 264.682,154.277 264.709,155.200 264.747 C 155.750 264.769,156.470 264.613,156.800 264.400 C 157.481 263.960,157.129 263.960,155.400 264.400 M275.070 265.895 C 273.443 266.023,273.216 266.137,273.619 266.623 C 274.157 267.271,274.983 267.420,274.600 266.800 C 274.453 266.562,274.921 266.400,275.753 266.400 C 276.523 266.400,277.264 266.220,277.400 266.000 C 277.536 265.780,277.502 265.632,277.324 265.672 C 277.146 265.712,276.132 265.812,275.070 265.895 M270.000 268.418 C 269.550 268.723,269.665 268.763,270.457 268.580 C 271.089 268.433,272.005 268.589,272.737 268.967 C 274.478 269.868,274.883 269.721,273.200 268.800 C 271.606 267.927,270.857 267.838,270.000 268.418 M263.734 269.596 C 263.779 270.272,264.057 270.618,264.600 270.673 C 265.176 270.731,265.211 270.698,264.725 270.552 C 264.353 270.442,263.964 269.957,263.859 269.475 C 263.700 268.742,263.680 268.761,263.734 269.596 M267.000 269.629 C 266.120 270.052,265.850 270.286,266.400 270.149 C 267.533 269.867,269.612 268.825,269.000 268.846 C 268.780 268.853,267.880 269.206,267.000 269.629 M170.300 271.829 C 168.805 272.640,168.896 272.978,170.400 272.200 C 171.060 271.859,171.600 271.494,171.600 271.390 C 171.600 271.132,171.557 271.147,170.300 271.829 M266.800 272.189 C 266.800 272.506,269.700 273.633,269.928 273.405 C 270.041 273.292,270.035 273.200,269.916 273.200 C 269.796 273.200,269.046 272.928,268.249 272.595 C 267.452 272.262,266.800 272.079,266.800 272.189 M263.660 275.076 C 263.627 276.658,263.735 278.036,263.900 278.139 C 264.065 278.241,264.149 277.397,264.086 276.262 C 263.882 272.584,263.721 272.137,263.660 275.076 M166.853 273.453 C 166.113 273.776,165.601 274.134,165.716 274.249 C 165.831 274.364,166.616 274.093,167.462 273.647 C 169.235 272.711,168.841 272.586,166.853 273.453 M265.944 276.521 C 265.865 277.512,265.935 278.240,266.100 278.138 C 266.265 278.036,266.400 277.333,266.400 276.576 C 266.400 275.079,266.583 274.987,268.274 275.625 C 269.041 275.915,269.269 275.917,268.988 275.633 C 267.601 274.229,266.091 274.669,265.944 276.521 M161.000 275.600 C 160.496 275.817,160.422 275.944,160.800 275.944 C 161.130 275.944,161.760 275.789,162.200 275.600 C 162.704 275.383,162.778 275.256,162.400 275.256 C 162.070 275.256,161.440 275.411,161.000 275.600 M157.400 276.400 L 156.600 276.744 157.400 276.744 C 157.840 276.744,158.560 276.589,159.000 276.400 L 159.800 276.056 159.000 276.056 C 158.560 276.056,157.840 276.211,157.400 276.400 M152.000 277.200 C 150.629 277.489,150.625 277.495,151.800 277.524 C 152.460 277.541,153.720 277.405,154.600 277.223 L 156.200 276.892 154.800 276.899 C 154.030 276.902,152.770 277.038,152.000 277.200 M135.300 277.898 C 137.665 277.969,141.535 277.969,143.900 277.898 C 146.265 277.828,144.330 277.770,139.600 277.770 C 134.870 277.770,132.935 277.828,135.300 277.898 " stroke="none" fill="#96a6b5" fill-rule="evenodd"></path><path id="path3" d="M156.800 118.020 C 156.126 118.249,156.451 118.284,157.800 118.128 C 158.900 118.001,159.875 117.831,159.967 117.749 C 160.282 117.468,157.799 117.680,156.800 118.020 M227.633 117.747 C 227.725 117.828,228.520 118.004,229.400 118.138 C 230.515 118.307,230.758 118.271,230.200 118.019 C 229.432 117.671,227.290 117.444,227.633 117.747 M236.000 120.179 C 236.000 120.289,236.540 120.659,237.200 121.000 C 237.860 121.341,238.400 121.531,238.400 121.421 C 238.400 121.311,237.860 120.941,237.200 120.600 C 236.540 120.259,236.000 120.069,236.000 120.179 M209.211 121.820 C 207.384 123.109,208.013 123.092,209.914 121.800 C 210.723 121.250,211.209 120.809,210.993 120.820 C 210.777 120.830,209.975 121.280,209.211 121.820 M143.344 123.169 C 142.653 123.590,141.965 124.133,141.816 124.374 C 141.592 124.737,144.175 123.158,144.756 122.577 C 145.147 122.187,144.533 122.444,143.344 123.169 M186.600 125.327 C 187.480 126.120,188.349 126.777,188.531 126.785 C 188.713 126.793,188.353 126.391,187.731 125.891 C 185.613 124.187,184.995 123.879,186.600 125.327 M244.201 126.400 C 245.450 127.830,246.923 129.765,247.474 130.700 C 248.744 132.854,249.156 132.942,247.953 130.803 C 247.460 129.924,245.902 127.989,244.492 126.503 L 241.929 123.800 244.201 126.400 M138.476 127.100 L 136.131 129.400 138.366 127.430 C 139.595 126.347,140.771 125.312,140.980 125.130 C 141.189 124.949,141.239 124.800,141.091 124.800 C 140.942 124.800,139.766 125.835,138.476 127.100 M185.716 132.396 C 182.467 135.732,181.530 136.490,181.136 136.096 C 180.863 135.823,180.456 135.600,180.231 135.600 C 180.006 135.600,180.242 135.894,180.755 136.254 C 181.675 136.898,181.747 136.848,185.926 132.669 C 188.257 130.338,190.082 128.379,189.982 128.316 C 189.882 128.252,187.962 130.088,185.716 132.396 M201.523 129.500 C 200.818 130.321,200.290 131.200,200.501 131.200 C 200.583 131.200,201.049 130.660,201.537 130.000 C 202.501 128.696,202.492 128.372,201.523 129.500 M160.500 129.876 C 160.885 129.976,161.515 129.976,161.900 129.876 C 162.285 129.775,161.970 129.693,161.200 129.693 C 160.430 129.693,160.115 129.775,160.500 129.876 M167.000 130.023 C 169.026 130.442,170.663 130.423,169.000 130.000 C 168.340 129.832,167.260 129.694,166.600 129.693 C 165.591 129.692,165.655 129.745,167.000 130.023 M220.200 130.000 C 219.181 130.438,220.232 130.438,221.600 130.000 C 222.404 129.743,222.443 129.677,221.800 129.668 C 221.360 129.662,220.640 129.811,220.200 130.000 M226.433 129.744 C 226.525 129.823,227.140 130.008,227.800 130.156 C 228.676 130.352,228.838 130.315,228.400 130.018 C 227.860 129.653,226.032 129.398,226.433 129.744 M229.633 130.549 C 230.045 130.917,232.400 132.000,232.400 131.821 C 232.400 131.590,230.182 130.400,229.753 130.400 C 229.596 130.400,229.542 130.467,229.633 130.549 M215.744 131.969 C 215.053 132.390,214.365 132.933,214.216 133.174 C 213.992 133.537,216.575 131.958,217.156 131.377 C 217.547 130.987,216.933 131.244,215.744 131.969 M234.652 133.841 C 235.781 134.949,237.001 136.428,237.363 137.128 C 237.724 137.827,238.112 138.400,238.224 138.400 C 239.016 138.400,235.587 133.926,233.872 132.721 C 233.062 132.151,233.345 132.558,234.652 133.841 M149.953 133.503 C 148.646 134.372,145.995 136.786,145.209 137.821 C 144.883 138.250,145.693 137.608,147.009 136.394 C 148.324 135.181,149.850 133.886,150.400 133.515 C 150.950 133.145,151.310 132.834,151.200 132.824 C 151.090 132.814,150.529 133.119,149.953 133.503 M176.410 132.926 C 177.009 133.574,179.695 135.197,179.218 134.622 C 178.910 134.251,178.105 133.666,177.429 133.323 C 176.753 132.979,176.295 132.801,176.410 132.926 M212.324 135.100 C 211.759 135.705,211.092 136.650,210.841 137.200 C 210.452 138.051,210.459 138.087,210.892 137.438 C 211.171 137.019,211.914 136.074,212.541 135.338 C 213.917 133.726,213.762 133.557,212.324 135.100 M131.814 135.435 C 131.441 136.004,131.205 136.538,131.289 136.622 C 131.373 136.707,131.758 136.241,132.144 135.588 C 133.006 134.128,132.748 134.009,131.814 135.435 M143.913 139.500 C 143.307 140.195,142.080 142.393,142.523 141.990 C 142.883 141.662,144.791 138.800,144.650 138.800 C 144.581 138.800,144.249 139.115,143.913 139.500 M197.069 139.956 C 196.921 140.695,196.820 141.683,196.844 142.150 C 196.868 142.618,197.047 142.190,197.242 141.200 C 197.437 140.210,197.538 139.223,197.467 139.006 C 197.396 138.790,197.217 139.217,197.069 139.956 M209.056 141.684 C 208.921 142.188,208.828 143.050,208.849 143.600 C 208.872 144.189,209.031 143.871,209.236 142.825 C 209.603 140.952,209.473 140.127,209.056 141.684 M251.674 144.400 C 251.628 145.830,251.506 147.720,251.402 148.600 L 251.212 150.200 251.621 148.600 C 251.846 147.720,251.969 145.830,251.894 144.400 L 251.757 141.800 251.674 144.400 M128.200 144.400 C 128.048 145.091,128.007 145.741,128.109 145.842 C 128.211 145.944,128.409 145.453,128.550 144.750 C 128.883 143.083,128.560 142.760,128.200 144.400 M208.828 146.633 C 208.844 147.275,209.016 148.160,209.210 148.600 C 209.447 149.134,209.486 148.802,209.327 147.600 C 209.046 145.480,208.788 144.980,208.828 146.633 M140.229 147.429 C 140.081 148.015,140.038 148.572,140.132 148.666 C 140.227 148.760,140.424 148.358,140.571 147.771 C 140.719 147.185,140.762 146.628,140.668 146.534 C 140.573 146.440,140.376 146.842,140.229 147.429 M196.828 148.033 C 196.844 148.785,197.012 149.760,197.203 150.200 C 197.426 150.715,197.467 150.287,197.318 149.000 C 197.044 146.622,196.789 146.119,196.828 148.033 M237.052 153.265 C 236.453 154.180,236.253 154.688,236.608 154.394 C 237.212 153.892,238.585 151.600,238.281 151.600 C 238.205 151.600,237.652 152.349,237.052 153.265 M139.223 155.233 C 139.236 157.085,139.389 159.320,139.563 160.200 C 139.753 161.162,139.802 159.886,139.686 157.000 C 139.460 151.401,139.190 150.370,139.223 155.233 M211.071 153.103 C 211.459 153.820,212.585 155.170,213.574 156.103 L 215.371 157.800 213.584 155.800 C 212.602 154.700,211.475 153.350,211.081 152.800 C 210.390 151.834,210.389 151.844,211.071 153.103 M126.924 155.400 C 126.926 156.720,127.001 157.212,127.090 156.493 C 127.179 155.774,127.177 154.694,127.086 154.093 C 126.995 153.492,126.922 154.080,126.924 155.400 M247.798 158.804 C 247.455 159.466,246.088 161.311,244.758 162.904 L 242.341 165.800 244.753 163.200 C 246.927 160.856,249.185 157.600,248.636 157.600 C 248.517 157.600,248.140 158.142,247.798 158.804 M200.523 159.029 C 200.866 159.705,201.451 160.510,201.822 160.818 C 202.193 161.126,202.015 160.668,201.426 159.800 C 200.033 157.748,199.748 157.505,200.523 159.029 M222.711 160.293 C 223.651 160.378,225.091 160.377,225.911 160.291 C 226.730 160.205,225.960 160.136,224.200 160.137 C 222.440 160.139,221.770 160.209,222.711 160.293 M203.234 162.647 C 203.765 163.333,204.280 163.823,204.379 163.735 C 204.477 163.647,204.043 163.086,203.413 162.488 L 202.269 161.400 203.234 162.647 M140.056 162.800 C 140.056 163.130,140.211 163.760,140.400 164.200 C 140.617 164.704,140.744 164.778,140.744 164.400 C 140.744 164.070,140.589 163.440,140.400 163.000 C 140.183 162.496,140.056 162.422,140.056 162.800 M206.200 165.563 C 207.026 166.517,209.200 168.192,209.200 167.875 C 209.200 167.777,208.345 167.009,207.300 166.168 C 206.255 165.328,205.760 165.055,206.200 165.563 M128.006 165.833 C 128.009 166.255,128.195 166.870,128.418 167.200 C 128.715 167.638,128.752 167.476,128.556 166.600 C 128.227 165.129,127.998 164.810,128.006 165.833 M240.566 166.712 C 239.887 167.310,238.987 168.028,238.566 168.306 C 238.133 168.591,238.322 168.564,239.000 168.244 C 239.660 167.931,240.636 167.209,241.170 166.638 C 242.425 165.294,242.133 165.330,240.566 166.712 M141.600 167.353 C 141.600 167.782,142.790 170.000,143.021 170.000 C 143.131 170.000,142.923 169.415,142.559 168.700 C 141.817 167.240,141.600 166.936,141.600 167.353 M217.000 171.600 C 217.440 171.789,218.070 171.944,218.400 171.944 C 218.778 171.944,218.704 171.817,218.200 171.600 C 217.760 171.411,217.130 171.256,216.800 171.256 C 216.422 171.256,216.496 171.383,217.000 171.600 M220.500 172.276 C 220.885 172.376,221.515 172.376,221.900 172.276 C 222.285 172.175,221.970 172.093,221.200 172.093 C 220.430 172.093,220.115 172.175,220.500 172.276 M226.500 172.276 C 226.885 172.376,227.515 172.376,227.900 172.276 C 228.285 172.175,227.970 172.093,227.200 172.093 C 226.430 172.093,226.115 172.175,226.500 172.276 M223.700 172.676 C 224.085 172.776,224.715 172.776,225.100 172.676 C 225.485 172.575,225.170 172.493,224.400 172.493 C 223.630 172.493,223.315 172.575,223.700 172.676 M147.400 175.367 C 148.500 176.390,149.760 177.422,150.200 177.662 C 151.219 178.217,150.772 177.800,147.800 175.425 L 145.400 173.507 147.400 175.367 M180.624 175.013 C 180.196 175.336,180.025 175.600,180.244 175.600 C 180.462 175.600,180.859 175.381,181.126 175.114 C 181.508 174.732,182.471 175.483,185.606 178.606 C 189.923 182.906,189.939 182.934,188.900 184.169 C 188.201 184.999,188.201 184.999,189.100 184.238 C 189.595 183.819,190.000 183.276,190.000 183.031 C 190.000 182.602,181.986 174.387,181.593 174.413 C 181.487 174.420,181.051 174.690,180.624 175.013 M178.018 177.050 C 176.136 178.386,175.971 178.618,177.429 177.877 C 178.105 177.534,178.892 176.971,179.178 176.626 C 179.860 175.805,179.677 175.872,178.018 177.050 M134.330 179.500 C 134.761 180.105,135.528 180.960,136.034 181.400 C 136.540 181.840,136.251 181.345,135.392 180.300 C 133.673 178.208,133.103 177.779,134.330 179.500 M199.637 180.955 C 199.326 181.330,199.213 183.307,199.288 187.055 L 199.400 192.600 223.800 192.605 L 248.200 192.609 223.889 192.502 L 199.578 192.394 199.689 186.697 L 199.800 181.000 224.062 181.000 C 237.406 181.000,248.240 180.865,248.138 180.700 C 247.763 180.093,200.145 180.343,199.637 180.955 M160.500 181.476 C 160.885 181.576,161.515 181.576,161.900 181.476 C 162.285 181.375,161.970 181.293,161.200 181.293 C 160.430 181.293,160.115 181.375,160.500 181.476 M138.800 184.125 C 138.800 184.194,139.385 184.779,140.100 185.425 L 141.400 186.600 140.225 185.300 C 139.130 184.088,138.800 183.816,138.800 184.125 M144.800 188.764 C 145.350 189.214,145.980 189.583,146.200 189.585 C 146.628 189.588,145.905 189.034,144.600 188.360 C 144.069 188.085,144.136 188.221,144.800 188.764 M264.598 191.202 C 263.575 192.332,264.010 192.437,265.086 191.320 C 265.573 190.814,265.826 190.400,265.648 190.400 C 265.470 190.400,264.997 190.761,264.598 191.202 M276.218 191.382 C 277.407 192.571,277.481 194.119,276.400 195.200 C 275.960 195.640,275.770 196.000,275.977 196.000 C 276.564 196.000,277.600 194.318,277.600 193.365 C 277.600 192.468,276.198 190.400,275.589 190.400 C 275.395 190.400,275.678 190.842,276.218 191.382 M153.400 192.400 C 153.840 192.589,154.470 192.744,154.800 192.744 C 155.178 192.744,155.104 192.617,154.600 192.400 C 154.160 192.211,153.530 192.056,153.200 192.056 C 152.822 192.056,152.896 192.183,153.400 192.400 M266.080 192.480 C 265.535 193.025,265.429 194.400,265.932 194.400 C 266.114 194.400,266.249 193.995,266.232 193.500 C 266.201 192.625,266.323 192.597,270.700 192.487 C 275.333 192.370,275.402 192.394,275.231 194.000 C 275.175 194.518,275.220 194.521,275.555 194.022 C 276.757 192.234,267.785 190.775,266.080 192.480 M156.800 193.180 C 157.799 193.520,160.282 193.732,159.967 193.451 C 159.875 193.369,158.900 193.199,157.800 193.072 C 156.451 192.916,156.126 192.951,156.800 193.180 M272.934 195.027 C 272.600 195.899,273.327 196.502,274.454 196.288 C 275.322 196.124,275.310 196.104,274.300 196.054 C 272.961 195.988,272.807 194.931,274.100 194.682 L 275.000 194.509 274.087 194.454 C 273.586 194.425,273.067 194.682,272.934 195.027 M267.200 196.000 L 265.800 196.295 267.300 196.347 C 268.125 196.376,268.800 196.220,268.800 196.000 C 268.800 195.780,268.755 195.624,268.700 195.653 C 268.645 195.682,267.970 195.838,267.200 196.000 M264.598 199.202 C 263.575 200.332,264.010 200.437,265.086 199.320 C 265.573 198.814,265.826 198.400,265.648 198.400 C 265.470 198.400,264.997 198.761,264.598 199.202 M276.218 199.382 C 277.351 200.515,277.469 201.802,276.568 203.211 L 275.936 204.200 276.768 203.256 C 278.035 201.818,277.205 198.400,275.589 198.400 C 275.395 198.400,275.678 198.842,276.218 199.382 M265.968 200.700 C 265.518 201.296,265.522 201.325,265.999 200.900 C 266.374 200.565,267.990 200.400,270.880 200.400 C 275.285 200.400,275.397 200.441,275.231 202.000 C 275.175 202.518,275.220 202.521,275.555 202.022 C 276.875 200.057,267.439 198.757,265.968 200.700 M265.600 201.912 C 265.600 202.641,267.059 202.847,271.200 202.700 L 275.000 202.566 270.780 202.483 C 268.136 202.431,266.381 202.221,266.080 201.920 C 265.715 201.555,265.600 201.553,265.600 201.912 M130.984 203.700 C 130.879 203.975,130.840 220.670,130.897 240.800 L 131.000 277.400 140.300 277.411 L 149.600 277.423 140.400 277.304 L 131.200 277.185 131.200 240.400 L 131.200 203.614 140.900 203.500 L 150.600 203.385 140.887 203.293 C 133.416 203.221,131.131 203.315,130.984 203.700 M189.033 203.547 C 188.915 203.737,189.220 204.232,189.709 204.647 L 190.600 205.400 189.846 204.509 L 189.092 203.618 196.646 203.500 L 204.200 203.381 196.724 203.291 C 192.612 203.241,189.151 203.356,189.033 203.547 M240.400 205.000 C 239.719 205.990,239.258 206.800,239.375 206.800 C 239.493 206.800,240.070 206.073,240.658 205.183 L 241.728 203.567 249.065 203.683 C 253.100 203.748,256.401 203.665,256.400 203.500 C 256.400 203.335,253.079 203.200,249.019 203.200 L 241.638 203.200 240.400 205.000 M151.300 203.876 C 151.685 203.976,152.315 203.976,152.700 203.876 C 153.085 203.775,152.770 203.693,152.000 203.693 C 151.230 203.693,150.915 203.775,151.300 203.876 M204.975 205.332 C 205.591 206.139,206.176 206.800,206.275 206.800 C 206.553 206.800,204.821 204.460,204.309 204.144 C 204.059 203.989,204.359 204.524,204.975 205.332 M266.257 204.452 C 266.666 204.612,268.710 204.736,270.800 204.725 C 275.448 204.703,274.782 204.493,269.457 204.301 C 267.288 204.223,265.848 204.291,266.257 204.452 M160.000 205.200 C 161.368 205.638,162.419 205.638,161.400 205.200 C 160.960 205.011,160.240 204.862,159.800 204.868 C 159.157 204.877,159.196 204.943,160.000 205.200 M253.408 207.642 C 252.601 208.765,252.132 209.565,252.366 209.421 C 252.852 209.120,255.332 205.600,255.057 205.600 C 254.957 205.600,254.215 206.519,253.408 207.642 M264.267 206.667 C 263.732 207.201,263.997 211.043,264.622 211.824 C 265.223 212.574,265.230 212.570,264.822 211.726 C 264.590 211.246,264.400 209.941,264.400 208.826 L 264.400 206.800 270.592 206.800 C 277.463 206.800,276.728 206.517,277.338 209.400 C 277.456 209.959,277.521 209.861,277.554 209.074 C 277.660 206.499,277.403 206.400,270.653 206.400 C 267.287 206.400,264.413 206.520,264.267 206.667 M192.812 209.122 C 193.766 210.508,194.736 211.760,194.967 211.903 C 195.441 212.196,192.592 208.129,191.672 207.200 C 191.345 206.870,191.858 207.735,192.812 209.122 M265.724 209.054 C 265.128 210.607,266.070 210.995,270.732 211.113 C 275.334 211.230,276.538 210.641,275.414 208.823 C 274.943 208.060,266.024 208.273,265.724 209.054 M275.128 209.700 C 275.004 210.571,274.858 210.600,270.600 210.600 C 266.342 210.600,266.196 210.571,266.072 209.700 C 265.946 208.811,266.001 208.800,270.600 208.800 C 275.199 208.800,275.254 208.811,275.128 209.700 M208.975 210.932 C 209.591 211.739,210.176 212.400,210.275 212.400 C 210.553 212.400,208.821 210.060,208.309 209.744 C 208.059 209.589,208.359 210.124,208.975 210.932 M236.000 211.200 C 235.530 211.860,235.236 212.400,235.346 212.400 C 235.456 212.400,235.930 211.860,236.400 211.200 C 236.870 210.540,237.164 210.000,237.054 210.000 C 236.944 210.000,236.470 210.540,236.000 211.200 M175.083 212.164 C 176.229 213.192,178.009 214.971,179.039 216.117 C 180.069 217.262,180.546 217.660,180.098 217.000 C 179.126 215.567,175.406 211.877,174.000 210.952 C 173.450 210.590,173.938 211.135,175.083 212.164 M196.812 214.722 C 197.766 216.108,198.736 217.360,198.967 217.503 C 199.441 217.796,196.592 213.729,195.672 212.800 C 195.345 212.470,195.858 213.335,196.812 214.722 M248.975 213.868 C 248.359 214.676,248.059 215.211,248.309 215.056 C 248.821 214.740,250.553 212.400,250.275 212.400 C 250.176 212.400,249.591 213.061,248.975 213.868 M145.913 215.095 C 147.076 215.176,148.876 215.176,149.913 215.093 C 150.951 215.011,150.000 214.945,147.800 214.946 C 145.600 214.947,144.751 215.014,145.913 215.095 M276.000 215.085 C 276.330 215.207,276.829 215.489,277.109 215.710 C 277.490 216.012,277.555 215.948,277.366 215.457 C 277.228 215.095,276.729 214.814,276.257 214.832 C 275.672 214.853,275.590 214.934,276.000 215.085 M154.000 215.600 C 154.550 215.776,155.360 215.920,155.800 215.920 C 156.433 215.920,156.392 215.854,155.600 215.600 C 155.050 215.424,154.240 215.280,153.800 215.280 C 153.167 215.280,153.208 215.346,154.000 215.600 M212.975 216.532 C 213.591 217.339,214.176 218.000,214.275 218.000 C 214.553 218.000,212.821 215.660,212.309 215.344 C 212.059 215.189,212.359 215.724,212.975 216.532 M232.744 215.900 C 231.593 217.289,231.106 218.000,231.304 218.000 C 231.414 218.000,231.986 217.370,232.573 216.600 C 233.663 215.171,233.795 214.632,232.744 215.900 M142.988 240.400 C 142.988 253.710,143.038 259.155,143.100 252.500 C 143.161 245.845,143.161 234.955,143.100 228.300 C 143.038 221.645,142.988 227.090,142.988 240.400 M266.300 217.096 C 262.893 217.309,262.703 219.245,266.100 219.128 L 268.200 219.056 266.300 218.906 C 264.979 218.802,264.400 218.580,264.400 218.178 C 264.400 217.759,264.923 217.592,266.300 217.572 C 267.345 217.556,268.560 217.389,269.000 217.200 C 269.440 217.011,269.530 216.878,269.200 216.904 C 268.870 216.930,267.565 217.016,266.300 217.096 M274.200 217.200 C 273.696 217.417,273.622 217.544,274.000 217.544 C 274.330 217.544,274.960 217.389,275.400 217.200 C 275.904 216.983,275.978 216.856,275.600 216.856 C 275.270 216.856,274.640 217.011,274.200 217.200 M272.000 217.951 C 272.000 218.463,273.176 219.357,273.467 219.066 C 273.603 218.930,273.420 218.706,273.060 218.568 C 272.699 218.429,272.504 218.155,272.626 217.958 C 272.748 217.761,272.657 217.600,272.424 217.600 C 272.191 217.600,272.000 217.758,272.000 217.951 M245.200 219.200 C 244.730 219.860,244.436 220.400,244.546 220.400 C 244.656 220.400,245.130 219.860,245.600 219.200 C 246.070 218.540,246.364 218.000,246.254 218.000 C 246.144 218.000,245.670 218.540,245.200 219.200 M181.160 219.000 C 181.834 220.305,182.388 221.028,182.385 220.600 C 182.383 220.380,182.014 219.750,181.564 219.200 C 181.021 218.536,180.885 218.469,181.160 219.000 M201.216 220.963 C 201.968 222.009,202.756 222.973,202.967 223.103 C 203.178 223.233,202.735 222.484,201.984 221.437 C 201.232 220.391,200.444 219.427,200.233 219.297 C 200.022 219.167,200.465 219.916,201.216 220.963 M276.500 220.032 C 277.731 220.749,277.302 221.304,275.700 221.067 L 274.200 220.845 275.517 221.286 C 277.124 221.822,278.058 221.234,277.214 220.217 C 276.932 219.878,276.499 219.605,276.251 219.612 C 276.003 219.619,276.115 219.808,276.500 220.032 M167.400 222.000 C 168.483 223.100,169.460 224.000,169.570 224.000 C 169.680 224.000,168.883 223.100,167.800 222.000 C 166.717 220.900,165.740 220.000,165.630 220.000 C 165.520 220.000,166.317 220.900,167.400 222.000 M228.744 221.500 C 227.593 222.889,227.106 223.600,227.304 223.600 C 227.414 223.600,227.986 222.970,228.573 222.200 C 229.663 220.771,229.795 220.232,228.744 221.500 M217.200 222.400 C 217.670 223.060,218.144 223.600,218.254 223.600 C 218.364 223.600,218.070 223.060,217.600 222.400 C 217.130 221.740,216.656 221.200,216.546 221.200 C 216.436 221.200,216.730 221.740,217.200 222.400 M241.200 224.800 C 240.730 225.460,240.436 226.000,240.546 226.000 C 240.656 226.000,241.130 225.460,241.600 224.800 C 242.070 224.140,242.364 223.600,242.254 223.600 C 242.144 223.600,241.670 224.140,241.200 224.800 M205.216 226.563 C 205.968 227.609,206.756 228.573,206.967 228.703 C 207.178 228.833,206.735 228.084,205.984 227.037 C 205.232 225.991,204.444 225.027,204.233 224.897 C 204.022 224.767,204.465 225.516,205.216 226.563 M224.042 227.900 L 222.807 229.400 221.566 228.000 L 220.324 226.600 221.181 227.888 C 222.609 230.036,223.099 229.989,224.846 227.536 C 226.008 225.904,225.495 226.136,224.042 227.900 M274.400 226.810 C 273.152 227.081,273.224 227.108,275.060 227.057 C 276.193 227.026,277.037 226.865,276.936 226.700 C 276.730 226.362,276.392 226.377,274.400 226.810 M269.300 227.476 C 269.685 227.576,270.315 227.576,270.700 227.476 C 271.085 227.375,270.770 227.293,270.000 227.293 C 269.230 227.293,268.915 227.375,269.300 227.476 M185.044 228.600 C 185.373 230.071,185.602 230.390,185.594 229.367 C 185.591 228.945,185.405 228.330,185.182 228.000 C 184.885 227.562,184.848 227.724,185.044 228.600 M266.500 227.876 C 266.885 227.976,267.515 227.976,267.900 227.876 C 268.285 227.775,267.970 227.693,267.200 227.693 C 266.430 227.693,266.115 227.775,266.500 227.876 M276.800 227.933 C 276.800 228.190,276.215 228.427,275.500 228.460 C 274.221 228.519,274.219 228.523,275.349 228.691 C 276.495 228.862,277.591 228.258,277.073 227.740 C 276.923 227.590,276.800 227.677,276.800 227.933 M264.053 229.257 C 263.994 230.878,264.464 231.236,266.533 231.143 C 267.687 231.092,267.657 231.065,266.200 230.843 C 264.750 230.623,264.577 230.469,264.353 229.200 L 264.105 227.800 264.053 229.257 M269.492 229.237 C 268.441 229.848,269.045 230.404,270.724 230.372 C 271.893 230.350,272.034 230.275,271.400 230.014 C 270.638 229.700,270.647 229.664,271.600 229.267 L 272.600 228.851 271.400 228.838 C 270.740 228.830,269.881 229.010,269.492 229.237 M236.608 231.242 C 235.801 232.365,235.332 233.165,235.566 233.021 C 236.052 232.720,238.532 229.200,238.257 229.200 C 238.157 229.200,237.415 230.119,236.608 231.242 M172.868 231.000 C 172.862 231.440,173.011 232.160,173.200 232.600 C 173.638 233.619,173.638 232.568,173.200 231.200 C 172.943 230.396,172.877 230.357,172.868 231.000 M209.216 232.163 C 209.968 233.209,210.756 234.173,210.967 234.303 C 211.178 234.433,210.735 233.684,209.984 232.637 C 209.232 231.591,208.444 230.627,208.233 230.497 C 208.022 230.367,208.465 231.116,209.216 232.163 M275.197 230.682 C 275.965 230.783,276.743 231.075,276.927 231.333 C 277.155 231.651,277.210 231.609,277.100 231.200 C 276.994 230.808,276.393 230.582,275.369 230.549 C 273.866 230.500,273.859 230.506,275.197 230.682 M185.872 233.000 C 185.999 234.100,186.169 235.075,186.251 235.167 C 186.532 235.482,186.320 232.999,185.980 232.000 C 185.751 231.326,185.716 231.651,185.872 233.000 M268.400 231.600 C 268.400 231.820,268.670 232.000,269.000 232.000 C 269.330 232.000,269.600 231.820,269.600 231.600 C 269.600 231.380,269.330 231.200,269.000 231.200 C 268.670 231.200,268.400 231.380,268.400 231.600 M265.700 232.276 C 266.085 232.376,266.715 232.376,267.100 232.276 C 267.485 232.175,267.170 232.093,266.400 232.093 C 265.630 232.093,265.315 232.175,265.700 232.276 M264.000 233.800 C 264.000 234.570,264.135 235.200,264.300 235.200 C 264.465 235.200,264.600 234.570,264.600 233.800 C 264.600 233.030,264.465 232.400,264.300 232.400 C 264.135 232.400,264.000 233.030,264.000 233.800 M269.900 233.281 C 268.056 233.771,267.938 234.411,269.700 234.368 C 270.446 234.350,270.744 234.230,270.400 234.086 C 270.032 233.932,270.573 233.650,271.800 233.356 C 273.271 233.004,273.482 232.878,272.600 232.880 C 271.940 232.881,270.725 233.062,269.900 233.281 M273.505 234.683 C 274.002 234.779,274.722 234.775,275.105 234.675 C 275.487 234.575,275.080 234.496,274.200 234.501 C 273.320 234.505,273.007 234.587,273.505 234.683 M232.608 236.842 C 231.801 237.965,231.332 238.765,231.566 238.621 C 232.052 238.320,234.532 234.800,234.257 234.800 C 234.157 234.800,233.415 235.719,232.608 236.842 M276.351 235.161 C 276.654 235.353,276.779 235.711,276.628 235.955 C 276.476 236.200,276.543 236.400,276.776 236.400 C 277.009 236.400,277.200 236.040,277.200 235.600 C 277.200 235.102,276.935 234.802,276.500 234.806 C 275.946 234.811,275.915 234.885,276.351 235.161 M269.905 235.883 C 270.402 235.979,271.122 235.975,271.505 235.875 C 271.887 235.775,271.480 235.696,270.600 235.701 C 269.720 235.705,269.407 235.787,269.905 235.883 M213.186 237.780 C 213.859 238.758,214.601 239.677,214.834 239.821 C 215.068 239.965,214.599 239.165,213.792 238.042 C 211.990 235.534,211.493 235.319,213.186 237.780 M174.148 240.400 C 174.148 242.710,174.214 243.655,174.295 242.500 C 174.376 241.345,174.376 239.455,174.295 238.300 C 174.214 237.145,174.148 238.090,174.148 240.400 M264.870 239.326 C 264.391 239.835,264.000 240.399,264.000 240.580 C 264.000 240.760,264.373 240.434,264.829 239.854 C 265.738 238.698,274.077 238.232,276.126 239.222 C 276.970 239.630,276.974 239.623,276.224 239.022 C 274.823 237.900,265.987 238.136,264.870 239.326 M270.882 240.371 C 274.642 240.593,275.979 241.063,275.422 241.965 C 275.069 242.535,266.145 242.558,265.863 241.990 C 265.752 241.764,265.706 241.810,265.763 242.090 C 265.935 242.948,274.922 243.017,275.628 242.166 C 276.758 240.805,274.823 239.990,270.656 240.071 L 267.000 240.143 270.882 240.371 M277.000 241.600 C 277.000 242.438,277.135 243.040,277.300 242.938 C 277.465 242.836,277.600 242.234,277.600 241.600 C 277.600 240.966,277.465 240.364,277.300 240.262 C 277.135 240.160,277.000 240.762,277.000 241.600 M229.355 241.412 C 228.990 241.969,228.764 242.498,228.853 242.587 C 228.942 242.676,229.318 242.220,229.689 241.574 C 230.514 240.136,230.269 240.017,229.355 241.412 M270.800 244.400 L 265.800 244.638 270.676 244.719 C 273.587 244.767,275.652 244.639,275.800 244.400 C 275.936 244.180,275.992 244.036,275.924 244.081 C 275.856 244.126,273.550 244.269,270.800 244.400 M264.150 247.387 C 264.026 247.710,264.017 248.205,264.131 248.487 C 264.244 248.769,264.351 248.590,264.368 248.090 L 264.400 247.180 270.700 247.290 L 277.000 247.400 277.247 248.800 C 277.454 249.967,277.503 250.023,277.547 249.133 C 277.663 246.797,277.671 246.800,270.745 246.800 C 265.515 246.800,264.335 246.905,264.150 247.387 M173.029 248.629 C 172.881 249.215,172.838 249.772,172.932 249.866 C 173.027 249.960,173.224 249.558,173.371 248.971 C 173.519 248.385,173.562 247.828,173.468 247.734 C 173.373 247.640,173.176 248.042,173.029 248.629 M275.132 249.666 C 274.975 250.777,272.785 251.196,271.674 250.327 C 271.069 249.854,271.056 249.871,271.549 250.500 C 272.468 251.672,275.121 251.455,275.440 250.181 C 275.581 249.621,275.599 249.066,275.480 248.947 C 275.362 248.828,275.205 249.152,275.132 249.666 M276.832 250.877 C 276.814 251.250,276.400 251.835,275.911 252.177 C 275.422 252.520,275.214 252.800,275.449 252.800 C 276.129 252.800,277.303 251.298,277.073 250.723 C 276.933 250.374,276.853 250.425,276.832 250.877 M264.134 252.000 C 264.193 252.893,264.382 253.004,265.903 253.039 L 267.606 253.078 266.028 252.917 C 264.796 252.792,264.408 252.564,264.259 251.878 C 264.100 251.142,264.080 251.162,264.134 252.000 M170.699 254.432 C 170.095 255.514,169.683 256.400,169.783 256.400 C 170.057 256.400,172.121 252.788,171.947 252.614 C 171.865 252.532,171.303 253.350,170.699 254.432 M264.054 256.100 C 264.002 257.159,264.074 257.200,265.971 257.200 C 267.230 257.200,268.170 257.427,268.571 257.829 C 268.917 258.174,269.200 258.271,269.200 258.043 C 269.200 257.367,267.765 256.800,266.054 256.800 C 264.714 256.800,264.428 256.654,264.282 255.900 C 264.134 255.128,264.101 255.157,264.054 256.100 M276.751 255.561 C 277.784 256.216,276.758 256.800,274.576 256.800 C 272.948 256.800,272.400 256.945,272.400 257.376 C 272.400 258.204,273.074 258.504,273.346 257.798 C 273.501 257.392,274.144 257.200,275.345 257.200 C 276.593 257.200,277.186 257.013,277.359 256.564 C 277.648 255.809,277.341 255.198,276.676 255.206 C 276.363 255.210,276.389 255.332,276.751 255.561 M167.625 258.569 L 166.250 260.200 167.805 258.713 C 168.660 257.896,169.279 257.162,169.180 257.083 C 169.081 257.003,168.381 257.672,167.625 258.569 M275.300 259.426 C 277.366 260.502,277.842 261.416,276.170 261.096 C 275.504 260.969,275.277 261.037,275.527 261.287 C 276.079 261.839,277.400 261.500,277.400 260.807 C 277.400 260.245,274.613 258.401,273.800 258.425 C 273.580 258.432,274.255 258.882,275.300 259.426 M264.700 259.632 C 263.972 260.056,263.747 261.396,264.342 261.764 C 264.530 261.881,264.606 261.565,264.510 261.063 C 264.384 260.402,264.592 260.028,265.268 259.703 C 265.781 259.456,266.020 259.247,265.800 259.239 C 265.580 259.231,265.085 259.408,264.700 259.632 M180.860 261.627 C 179.462 263.875,179.140 264.883,180.422 263.000 C 181.430 261.518,182.473 259.600,182.270 259.600 C 182.187 259.600,181.553 260.512,180.860 261.627 M164.418 261.050 C 162.536 262.386,162.371 262.618,163.829 261.877 C 164.505 261.534,165.292 260.971,165.578 260.626 C 166.260 259.805,166.077 259.872,164.418 261.050 M157.000 264.400 C 156.496 264.617,156.422 264.744,156.800 264.744 C 157.130 264.744,157.760 264.589,158.200 264.400 C 158.704 264.183,158.778 264.056,158.400 264.056 C 158.070 264.056,157.440 264.211,157.000 264.400 M264.134 264.800 C 264.194 265.713,264.381 265.810,266.275 265.920 C 267.825 266.010,268.394 266.212,268.528 266.720 C 268.657 267.207,268.720 267.145,268.754 266.500 C 268.796 265.671,268.628 265.600,266.628 265.600 C 264.699 265.600,264.434 265.499,264.262 264.700 C 264.092 263.907,264.077 263.919,264.134 264.800 M176.786 266.700 L 174.600 269.000 176.900 266.814 C 179.037 264.782,179.383 264.400,179.086 264.400 C 179.024 264.400,177.989 265.435,176.786 266.700 M145.500 265.893 C 146.435 265.977,147.965 265.977,148.900 265.893 C 149.835 265.809,149.070 265.740,147.200 265.740 C 145.330 265.740,144.565 265.809,145.500 265.893 M272.000 265.951 C 272.000 266.144,272.855 266.219,273.900 266.118 C 276.734 265.843,276.879 265.667,274.300 265.632 C 273.035 265.614,272.000 265.758,272.000 265.951 M275.369 268.107 C 277.192 269.145,277.837 270.260,276.396 269.883 C 275.745 269.713,275.608 269.768,275.915 270.075 C 276.462 270.622,277.721 270.165,277.502 269.500 C 277.308 268.908,274.875 267.197,274.241 267.207 C 273.998 267.210,274.506 267.615,275.369 268.107 M264.480 268.480 C 263.718 269.242,263.897 270.400,264.776 270.400 C 265.203 270.400,265.654 270.237,265.777 270.037 C 265.900 269.838,265.641 269.769,265.201 269.884 C 264.180 270.151,264.101 269.014,265.100 268.432 C 265.485 268.208,265.611 268.019,265.380 268.012 C 265.149 268.005,264.744 268.216,264.480 268.480 M172.629 270.011 C 171.765 270.665,171.225 271.195,171.429 271.189 C 171.807 271.178,174.765 268.821,174.400 268.822 C 174.290 268.822,173.493 269.357,172.629 270.011 M169.500 271.829 C 168.005 272.640,168.096 272.978,169.600 272.200 C 170.260 271.859,170.800 271.494,170.800 271.390 C 170.800 271.132,170.757 271.147,169.500 271.829 M264.000 274.976 C 264.000 277.984,264.387 278.840,265.377 278.019 C 265.946 277.547,266.430 274.400,265.934 274.400 C 265.775 274.400,265.591 275.151,265.523 276.069 C 265.299 279.108,264.400 278.397,264.400 275.181 L 264.400 272.295 265.900 272.536 C 266.929 272.702,267.212 272.657,266.800 272.395 C 266.470 272.184,265.705 272.009,265.100 272.006 L 264.000 272.000 264.000 274.976 M275.443 273.033 C 275.309 273.381,275.200 274.120,275.200 274.676 C 275.200 275.574,275.077 275.658,274.100 275.431 C 273.284 275.242,273.155 275.280,273.600 275.582 C 274.853 276.430,275.546 276.069,275.676 274.500 C 275.869 272.161,276.967 272.488,277.123 274.931 C 277.265 277.151,276.688 278.130,275.444 277.783 C 274.771 277.595,274.721 277.633,275.200 277.968 C 276.528 278.898,277.600 277.753,277.600 275.404 C 277.600 273.176,277.290 272.400,276.400 272.400 C 276.007 272.400,275.576 272.685,275.443 273.033 M159.400 275.600 C 158.896 275.817,158.822 275.944,159.200 275.944 C 159.530 275.944,160.160 275.789,160.600 275.600 C 161.104 275.383,161.178 275.256,160.800 275.256 C 160.470 275.256,159.840 275.411,159.400 275.600 M150.705 277.083 C 151.202 277.179,151.922 277.175,152.305 277.075 C 152.687 276.975,152.280 276.896,151.400 276.901 C 150.520 276.905,150.207 276.987,150.705 277.083 M219.700 277.497 C 221.405 277.572,224.195 277.572,225.900 277.497 C 227.605 277.422,226.210 277.361,222.800 277.361 C 219.390 277.361,217.995 277.422,219.700 277.497 " stroke="none" fill="#b4bcc6" fill-rule="evenodd"></path><path id="path4" d="M163.305 117.487 C 163.914 117.579,164.814 117.577,165.305 117.482 C 165.797 117.387,165.300 117.311,164.200 117.314 C 163.100 117.317,162.697 117.395,163.305 117.487 M223.500 117.482 C 223.995 117.578,224.805 117.578,225.300 117.482 C 225.795 117.387,225.390 117.309,224.400 117.309 C 223.410 117.309,223.005 117.387,223.500 117.482 M163.100 129.882 C 163.595 129.978,164.405 129.978,164.900 129.882 C 165.395 129.787,164.990 129.709,164.000 129.709 C 163.010 129.709,162.605 129.787,163.100 129.882 M163.305 181.487 C 163.914 181.579,164.814 181.577,165.305 181.482 C 165.797 181.387,165.300 181.311,164.200 181.314 C 163.100 181.317,162.697 181.395,163.305 181.487 M248.559 186.800 C 248.559 189.990,248.621 191.295,248.697 189.700 C 248.773 188.105,248.773 185.495,248.697 183.900 C 248.621 182.305,248.559 183.610,248.559 186.800 M268.900 190.294 C 269.945 190.376,271.655 190.376,272.700 190.294 C 273.745 190.212,272.890 190.144,270.800 190.144 C 268.710 190.144,267.855 190.212,268.900 190.294 M162.900 193.887 C 163.505 193.978,164.495 193.978,165.100 193.887 C 165.705 193.795,165.210 193.720,164.000 193.720 C 162.790 193.720,162.295 193.795,162.900 193.887 M268.713 198.295 C 269.876 198.376,271.676 198.376,272.713 198.293 C 273.751 198.211,272.800 198.145,270.600 198.146 C 268.400 198.147,267.551 198.214,268.713 198.295 M268.900 213.094 C 269.945 213.176,271.655 213.176,272.700 213.094 C 273.745 213.012,272.890 212.944,270.800 212.944 C 268.710 212.944,267.855 213.012,268.900 213.094 M265.300 217.087 C 265.905 217.178,266.895 217.178,267.500 217.087 C 268.105 216.995,267.610 216.920,266.400 216.920 C 265.190 216.920,264.695 216.995,265.300 217.087 M277.200 235.706 C 277.200 236.057,276.795 236.422,276.300 236.518 L 275.400 236.691 276.313 236.746 C 277.192 236.798,277.962 235.829,277.449 235.316 C 277.312 235.179,277.200 235.354,277.200 235.706 M268.713 240.695 C 269.876 240.776,271.676 240.776,272.713 240.693 C 273.751 240.611,272.800 240.545,270.600 240.546 C 268.400 240.547,267.551 240.614,268.713 240.695 M216.584 260.000 C 216.584 269.570,216.636 273.485,216.700 268.700 C 216.763 263.915,216.763 256.085,216.700 251.300 C 216.636 246.515,216.584 250.430,216.584 260.000 M228.984 260.000 C 228.984 269.570,229.036 273.485,229.100 268.700 C 229.163 263.915,229.163 256.085,229.100 251.300 C 229.036 246.515,228.984 250.430,228.984 260.000 M265.505 251.083 C 266.002 251.179,266.722 251.175,267.105 251.075 C 267.487 250.975,267.080 250.896,266.200 250.901 C 265.320 250.905,265.007 250.987,265.505 251.083 M265.305 257.487 C 265.914 257.579,266.814 257.577,267.305 257.482 C 267.797 257.387,267.300 257.311,266.200 257.314 C 265.100 257.317,264.697 257.395,265.305 257.487 M274.305 257.483 C 274.802 257.579,275.522 257.575,275.905 257.475 C 276.287 257.375,275.880 257.296,275.000 257.301 C 274.120 257.305,273.807 257.387,274.305 257.483 M267.519 263.898 C 269.344 263.972,272.224 263.972,273.919 263.897 C 275.614 263.822,274.120 263.761,270.600 263.762 C 267.080 263.762,265.694 263.824,267.519 263.898 " stroke="none" fill="#acbcc4" fill-rule="evenodd"></path></g></svg>